<svg width="32" height="32" viewBox="0 0 32 32" fill="none" xmlns="http://www.w3.org/2000/svg">
<rect width="32" height="32" rx="4" fill="#65AF4C"/>
<g clip-path="url(#clip0_42_4184)">
<path d="M22.4625 22.9176L20.4439 14.1619C20.2892 13.4804 19.6813 12.9963 18.9816 13.0007H17.2478V11.4989H17.6246C19.9034 11.4966 21.7493 9.65181 21.7515 7.37435C21.7515 7.16812 21.5833 7 21.377 7H10.1199C9.91352 7 9.7453 7.16812 9.74306 7.37435C9.7453 9.65181 11.5934 11.4966 13.8722 11.4989H14.2468V13.0007H12.5153C11.8155 12.9963 11.2077 13.4804 11.0529 14.1619L9.0029 23.0408C9.00066 23.07 9.00066 23.0969 9.0029 23.126V23.5004C9.00515 24.3275 9.67577 24.9978 10.5034 25H21.0002C21.8278 24.9978 22.4984 24.3275 22.5007 23.5004V23.2538C22.5029 23.1395 22.4894 23.0274 22.4625 22.9176ZM13.8722 10.7502C12.1497 10.7502 10.703 9.45903 10.5079 7.74869H20.98C20.7848 9.45903 19.3382 10.7502 17.6156 10.7502H13.8722ZM16.4987 11.4989V13.0007H14.9959V11.4989H16.4987ZM21.7515 23.5004C21.7493 23.9151 21.4151 24.2491 21.0002 24.2513H10.4944C10.0795 24.2491 9.7453 23.9151 9.74306 23.5004V23.1731L11.7841 14.3345C11.8626 13.996 12.1676 13.7562 12.5153 13.7584H18.9793C19.3292 13.7562 19.632 13.9983 19.7105 14.339L21.7291 23.0946C21.7426 23.1507 21.7493 23.2067 21.7493 23.2628L21.7515 23.5004Z" fill="white"/>
<path d="M15.747 15.249C13.6746 15.249 11.9946 16.928 11.9946 18.9992C11.9946 21.0704 13.6746 22.7494 15.747 22.7494C17.8194 22.7494 19.4994 21.0704 19.4994 18.9992C19.4949 16.9302 17.8172 15.2535 15.747 15.249ZM15.747 22.0007C14.0873 22.0029 12.7438 20.6602 12.7415 19.0015C12.7393 17.3427 14.0828 16 15.7425 15.9977C17.4023 15.9955 18.7457 17.3382 18.748 18.997V18.9992C18.748 20.6557 17.4045 21.9985 15.747 22.0007Z" fill="white"/>
<path d="M11.2433 23.1261C11.2433 23.3323 11.0728 23.5004 10.8665 23.4982C10.6601 23.496 10.4919 23.3278 10.4942 23.1216C10.4964 22.9154 10.6624 22.7495 10.8687 22.7495C11.0751 22.7495 11.2433 22.9176 11.2433 23.1239V23.1261Z" fill="white"/>
<path d="M15.7467 16.751C15.5718 16.751 15.4193 16.872 15.3811 17.0424C15.2376 17.6812 14.9954 18.7841 14.9954 18.9993C14.9954 19.414 15.3318 19.7502 15.7467 19.7502C16.1617 19.7502 16.4981 19.414 16.4981 18.9993C16.4981 18.7751 16.2559 17.6812 16.1123 17.0424C16.0742 16.872 15.9217 16.751 15.7467 16.751Z" fill="white"/>
</g>
<defs>
<clipPath id="clip0_42_4184">
<rect width="13.5" height="18" fill="white" transform="translate(9 7)"/>
</clipPath>
</defs>
</svg>
