<svg width="32" height="32" viewBox="0 0 32 32" fill="none" xmlns="http://www.w3.org/2000/svg">
<rect width="32" height="32" rx="4" fill="#65AF4C"/>
<g clip-path="url(#clip0_42_4160)">
<path d="M6.29688 15.4923C6.38674 15.2874 6.54344 15.2198 6.76005 15.2198C7.97904 15.2268 9.20034 15.2198 10.4193 15.2268C10.5553 15.2268 10.6221 15.1896 10.6659 15.0568C10.7903 14.6796 10.9608 14.3233 11.1521 13.9764C11.1775 13.9298 11.1982 13.8809 11.2328 13.8087C11.0484 13.8087 10.8871 13.8087 10.7281 13.8087C10.2212 13.8087 9.7142 13.8087 9.20725 13.8087C8.93073 13.8087 8.76021 13.6643 8.76482 13.4385C8.76943 13.2219 8.93995 13.0775 9.20034 13.0775C9.99764 13.0752 10.7949 13.0752 11.5922 13.0775C11.689 13.0775 11.7558 13.0566 11.8227 12.9751C12.8619 11.685 14.1777 10.8258 15.7792 10.4299C15.8806 10.4043 15.9313 10.3647 15.9267 10.2483C15.9175 10.0294 15.9198 9.80819 15.9267 9.5893C15.929 9.49383 15.8921 9.45424 15.8069 9.41931C15.2193 9.1818 14.8966 8.62526 15.0026 8.04079C15.1156 7.42138 15.6179 7.00456 16.2654 7.00223C17.1088 6.99991 17.9476 6.99991 18.7887 7.00223C19.4316 7.00456 19.9293 7.41672 20.0399 8.02681C20.1505 8.62992 19.8371 9.17947 19.238 9.41698C19.1504 9.45191 19.1205 9.49615 19.1251 9.5893C19.132 9.78956 19.1389 9.99214 19.1228 10.1924C19.1113 10.3438 19.162 10.3973 19.3071 10.4346C20.5469 10.742 21.6345 11.3381 22.5563 12.2299C23.8997 13.5316 24.6647 15.1244 24.8214 17.0012C24.9574 18.6429 24.5772 20.1588 23.7199 21.5559C23.5932 21.7632 23.4342 21.8354 23.2545 21.7725C23.0194 21.6887 22.9457 21.4302 23.0978 21.1857C23.4227 20.6594 23.6739 20.1029 23.8513 19.5091C24.9551 15.7973 22.6646 11.8899 18.9131 11.0912C15.2838 10.3181 11.7628 12.6724 11.0576 16.3492C10.3502 20.033 12.8112 23.5865 16.4866 24.1733C18.1135 24.4341 19.6321 24.1267 21.0354 23.2535C21.0653 23.2348 21.0953 23.2139 21.1276 23.1952C21.3234 23.0881 21.5285 23.137 21.6345 23.314C21.7405 23.4887 21.6898 23.6982 21.5032 23.8216C20.9962 24.1546 20.4524 24.4201 19.8763 24.611C16.1663 25.8475 12.249 24.0312 10.7581 20.3823C10.7074 20.2566 10.6405 20.2263 10.5161 20.2263C9.7672 20.231 9.01829 20.2286 8.26938 20.2286C8.19104 20.2286 8.11039 20.2286 8.03434 20.2147C7.86613 20.1844 7.75091 20.033 7.75091 19.8607C7.75091 19.6977 7.86152 19.551 8.02052 19.5137C8.09656 19.4974 8.17721 19.4951 8.25325 19.4951C8.93073 19.4928 9.6059 19.4905 10.2834 19.4974C10.4308 19.4998 10.4585 19.4579 10.4216 19.3205C10.3295 18.9735 10.2695 18.6172 10.2511 18.2563C10.2442 18.1236 10.2073 18.0793 10.0714 18.0817C9.61281 18.091 9.15425 18.0863 8.69338 18.084C8.41917 18.084 8.25095 17.9373 8.25556 17.7091C8.26017 17.4879 8.42608 17.3528 8.69338 17.3528C9.15194 17.3505 9.61051 17.3482 10.0714 17.3551C10.1889 17.3575 10.2258 17.3179 10.2304 17.2038C10.2465 16.8382 10.2834 16.4726 10.3686 16.1163C10.4055 15.9626 10.3571 15.9463 10.2258 15.9463C9.40542 15.951 8.58277 15.9487 7.76243 15.9487C7.44904 15.9487 7.13335 15.9394 6.81996 15.951C6.59644 15.9673 6.4167 15.9068 6.29688 15.7112C6.29688 15.639 6.29688 15.5645 6.29688 15.4923ZM17.5167 8.76032C17.9268 8.76032 18.337 8.76032 18.7472 8.76032C18.8301 8.76032 18.9154 8.76265 18.9961 8.73238C19.2196 8.65088 19.3671 8.41802 19.3325 8.18749C19.2933 7.91504 19.0882 7.73807 18.7841 7.73574C17.9522 7.73108 17.1203 7.73341 16.2862 7.73574C15.9405 7.73574 15.7124 7.94997 15.717 8.25967C15.7216 8.56239 15.9428 8.75799 16.2862 8.76032C16.6963 8.76032 17.1065 8.76032 17.5167 8.76032ZM17.5351 9.4915C17.2885 9.4915 17.0397 9.49615 16.7931 9.48917C16.6802 9.48684 16.6456 9.52643 16.6502 9.63587C16.6572 9.79421 16.6595 9.95256 16.6502 10.1109C16.6433 10.239 16.694 10.2669 16.8092 10.2506C17.1503 10.2017 17.4959 10.2227 17.8393 10.2134C18.0259 10.2087 18.2817 10.3484 18.3808 10.204C18.4753 10.0667 18.3992 9.81517 18.4061 9.61491C18.4085 9.51711 18.3739 9.48917 18.2794 9.4915C18.0305 9.49615 17.784 9.4915 17.5351 9.4915Z" fill="white"/>
<path d="M6.29688 19.7397C6.34296 19.7257 6.34527 19.6745 6.37292 19.6442C6.51579 19.4719 6.76005 19.4533 6.91213 19.607C7.06191 19.7583 7.055 19.9982 6.896 20.1402C6.7347 20.2823 6.48813 20.2497 6.3614 20.068C6.33835 20.0331 6.31761 19.9958 6.29688 19.9586C6.29688 19.8864 6.29688 19.8119 6.29688 19.7397Z" fill="white"/>
<path d="M17.538 11.9273C20.6466 11.9342 23.1583 14.4771 23.1537 17.616C23.1468 20.748 20.612 23.3001 17.5173 23.2884C14.4156 23.2768 11.9016 20.72 11.9131 17.5881C11.9246 14.4561 14.4433 11.9226 17.538 11.9273ZM17.5357 12.6608C14.835 12.6561 12.639 14.8706 12.6367 17.602C12.6344 20.3288 14.8327 22.5549 17.5288 22.5573C20.2249 22.5596 22.4278 20.3358 22.4278 17.609C22.4278 14.8752 20.241 12.6654 17.5357 12.6608Z" fill="white"/>
<path d="M22.0955 22.5736C22.0978 22.3733 22.2545 22.2173 22.455 22.2173C22.6531 22.2173 22.8144 22.378 22.8167 22.5736C22.819 22.7761 22.6485 22.9438 22.4457 22.9391C22.2453 22.9368 22.0932 22.7761 22.0955 22.5736Z" fill="white"/>
<path d="M16.4061 17.5902C16.4015 17.4761 16.4176 17.3644 16.4614 17.2666C16.519 17.1408 16.4936 17.0616 16.3946 16.9685C16.1733 16.7613 15.9636 16.5424 15.7516 16.3235C15.5742 16.1418 15.565 15.9276 15.7194 15.7739C15.8692 15.6249 16.0881 15.6365 16.2655 15.8112C16.4844 16.0277 16.7056 16.249 16.9176 16.4725C16.9937 16.5517 17.0513 16.5796 17.1642 16.5354C17.4015 16.4422 17.6527 16.4422 17.8901 16.533C18.0007 16.575 18.0606 16.554 18.1389 16.4748C18.6689 15.9323 19.2058 15.3944 19.7381 14.8541C19.7796 14.8122 19.8234 14.7657 19.8718 14.7307C20.0193 14.6283 20.2128 14.6492 20.335 14.775C20.4571 14.9007 20.4709 15.0986 20.3649 15.243C20.3257 15.2966 20.2774 15.3431 20.229 15.3897C19.7036 15.9206 19.1805 16.4539 18.6505 16.9801C18.5652 17.064 18.5514 17.1292 18.5906 17.2456C18.7381 17.7067 18.6321 18.1211 18.2749 18.4425C17.9177 18.7662 17.5006 18.8337 17.0628 18.6311C16.6319 18.4355 16.4199 18.0699 16.4061 17.5902ZM17.5398 17.206C17.314 17.2014 17.1342 17.3783 17.1319 17.6019C17.1296 17.8254 17.3117 18.0117 17.5306 18.0117C17.7426 18.0117 17.9223 17.8347 17.9292 17.6205C17.9385 17.3946 17.7633 17.2107 17.5398 17.206Z" fill="white"/>
<path d="M17.8942 13.8623C17.8942 13.9228 17.8988 13.9834 17.8942 14.0439C17.8804 14.2442 17.7375 14.3885 17.5486 14.3932C17.3619 14.4002 17.1983 14.2651 17.1776 14.0672C17.1638 13.9415 17.1661 13.8111 17.173 13.6853C17.1868 13.4664 17.3435 13.3197 17.5486 13.329C17.7468 13.336 17.8827 13.4827 17.8942 13.6969C17.8988 13.7528 17.8965 13.8064 17.8942 13.8623Z" fill="white"/>
<path d="M21.2312 17.2481C21.2911 17.2481 21.351 17.2458 21.4109 17.2481C21.6091 17.2597 21.7543 17.4018 21.7658 17.5904C21.7773 17.7814 21.6345 17.956 21.4317 17.9746C21.3003 17.9863 21.1667 17.9863 21.0353 17.9746C20.8302 17.9537 20.6989 17.7907 20.7104 17.5881C20.7219 17.3971 20.8625 17.2621 21.0653 17.2504C21.1229 17.2458 21.1782 17.2481 21.2312 17.2481Z" fill="white"/>
<path d="M17.1661 21.3461C17.1661 21.2925 17.1638 21.2366 17.1661 21.1831C17.1776 20.9735 17.3228 20.8221 17.5186 20.8175C17.7122 20.8128 17.8712 20.9595 17.8873 21.1668C17.8965 21.2879 17.8965 21.409 17.8873 21.53C17.8735 21.7373 17.7168 21.8886 17.5255 21.8863C17.3274 21.8863 17.1753 21.728 17.1661 21.5091C17.1661 21.4555 17.1661 21.3996 17.1661 21.3461Z" fill="white"/>
<path d="M13.793 17.9747C13.7353 17.9701 13.6501 17.9701 13.5694 17.9514C13.4012 17.9118 13.2883 17.7582 13.2952 17.5905C13.3021 17.4135 13.4312 17.2645 13.6109 17.2482C13.7423 17.2366 13.8759 17.2366 14.0096 17.2435C14.2077 17.2552 14.3391 17.3926 14.3506 17.5789C14.3621 17.7768 14.24 17.9305 14.0395 17.9607C13.9658 17.9724 13.8943 17.9701 13.793 17.9747Z" fill="white"/>
</g>
<defs>
<clipPath id="clip0_42_4160">
<rect width="19" height="18" fill="white" transform="translate(6 7)"/>
</clipPath>
</defs>
</svg>
