<svg width="24" height="24" viewBox="0 0 24 24" fill="none" xmlns="http://www.w3.org/2000/svg">
<g clip-path="url(#clip0_146_11096)">
<rect width="24" height="24" rx="4" fill="#65AF4C"/>
<path fill-rule="evenodd" clip-rule="evenodd" d="M12.03 11.6308C12.0716 11.6544 12.1226 11.6543 12.1642 11.6304L17.6385 8.49262L12.1738 5.35202C12.132 5.32797 12.0805 5.32797 12.0388 5.35202L6.53058 8.51762L12.03 11.6308ZM12.5131 12.2111C12.471 12.2353 12.445 12.2801 12.445 12.3287V18.667L17.9321 15.5136C17.9741 15.4894 18 15.4446 18 15.3961V9.06641L12.5131 12.2111ZM13.6608 13.0605C13.6608 13.1648 13.7737 13.23 13.864 13.1778L16.1744 11.8439C16.2164 11.8197 16.2422 11.775 16.2422 11.7266V11.3173C16.2422 11.213 16.1293 11.1478 16.039 11.2L13.7286 12.5339C13.6866 12.5581 13.6608 12.6029 13.6608 12.6513V13.0605ZM11.7676 12.3399C11.7676 12.2911 11.7413 12.246 11.6989 12.222L6.21266 9.11518V15.3964C6.21266 15.4449 6.23857 15.4897 6.28061 15.5138L11.7676 18.6673V12.3399Z" fill="white"/>
</g>
<defs>
<clipPath id="clip0_146_11096">
<rect width="24" height="24" rx="4" fill="white"/>
</clipPath>
</defs>
</svg>
