<svg width="21" height="20" viewBox="0 0 21 20" fill="none" xmlns="http://www.w3.org/2000/svg">
<g clip-path="url(#clip0_690_66)">
<path d="M13.9917 12.1667C14.6167 12.1667 15.1667 11.825 15.45 11.3083L18.4334 5.9C18.7417 5.35 18.3417 4.66667 17.7084 4.66667H5.37503L4.5917 3H1.8667V4.66667H3.53337L6.53337 10.9917L5.40837 13.025C4.80003 14.1417 5.60003 15.5 6.8667 15.5H16.8667V13.8333H6.8667L7.78337 12.1667H13.9917ZM6.1667 6.33333H16.2917L13.9917 10.5H8.1417L6.1667 6.33333ZM6.8667 16.3333C5.95003 16.3333 5.20837 17.0833 5.20837 18C5.20837 18.9167 5.95003 19.6667 6.8667 19.6667C7.78337 19.6667 8.53337 18.9167 8.53337 18C8.53337 17.0833 7.78337 16.3333 6.8667 16.3333ZM15.2 16.3333C14.2834 16.3333 13.5417 17.0833 13.5417 18C13.5417 18.9167 14.2834 19.6667 15.2 19.6667C16.1167 19.6667 16.8667 18.9167 16.8667 18C16.8667 17.0833 16.1167 16.3333 15.2 16.3333Z" fill="#65AF4C"/>
</g>
<defs>
<clipPath id="clip0_690_66">
<rect width="20" height="20" fill="white" transform="translate(0.203125)"/>
</clipPath>
</defs>
</svg>
