<svg width="40" height="40" viewBox="0 0 40 40" fill="none" xmlns="http://www.w3.org/2000/svg">
<rect width="40" height="40" rx="4" fill="white"/>
<g clip-path="url(#clip0_42_2791)">
<path d="M4.5 19.154C4.65136 18.8124 4.91527 18.6999 5.28008 18.6999C7.33312 18.7115 9.39004 18.6999 11.4431 18.7115C11.6721 18.7115 11.7846 18.6494 11.8583 18.4282C12.0679 17.7995 12.3551 17.2057 12.6772 16.6274C12.7199 16.5498 12.7549 16.4683 12.8131 16.348C12.5026 16.348 12.2309 16.348 11.9631 16.348C11.1093 16.348 10.2555 16.348 9.40168 16.348C8.93596 16.348 8.64877 16.1074 8.65653 15.7309C8.66429 15.37 8.95149 15.1294 9.39004 15.1294C10.7329 15.1255 12.0757 15.1255 13.4185 15.1294C13.5815 15.1294 13.694 15.0944 13.8066 14.9586C15.5569 12.8085 17.773 11.3765 20.4702 10.7167C20.641 10.674 20.7264 10.608 20.7186 10.414C20.7031 10.0492 20.707 9.68047 20.7186 9.31566C20.7225 9.15654 20.6604 9.09056 20.5168 9.03235C19.5272 8.63649 18.9838 7.70893 19.1624 6.73481C19.3525 5.70246 20.1986 5.00777 21.2891 5.00389C22.7096 5.00001 24.1222 5.00001 25.5388 5.00389C26.6216 5.00777 27.4599 5.6947 27.6462 6.71152C27.8325 7.71669 27.3047 8.63261 26.2956 9.02847C26.1481 9.08668 26.0977 9.16042 26.1054 9.31566C26.1171 9.64942 26.1287 9.98707 26.1016 10.3208C26.0821 10.5731 26.1675 10.6624 26.412 10.7245C28.5 11.2367 30.3318 12.2303 31.8842 13.7167C34.1468 15.8862 35.4353 18.5408 35.6992 21.6688C35.9282 24.4049 35.2878 26.9314 33.8441 29.26C33.6307 29.6054 33.3629 29.7257 33.0602 29.621C32.6643 29.4812 32.5401 29.0505 32.7962 28.643C33.3435 27.7659 33.7665 26.8383 34.0653 25.8486C35.9243 19.6624 32.0666 13.1501 25.7484 11.8189C19.6358 10.5304 13.7057 14.4541 12.5181 20.5822C11.3266 26.7219 15.4715 32.6442 21.6617 33.6223C24.4017 34.0569 26.9592 33.5446 29.3228 32.0893C29.3732 32.0582 29.4237 32.0233 29.478 31.9922C29.8079 31.8137 30.1533 31.8952 30.3318 32.1902C30.5103 32.4812 30.425 32.8305 30.1106 33.0362C29.2568 33.5912 28.3409 34.0336 27.3706 34.3519C21.1222 36.4127 14.5246 33.3855 12.0136 27.304C11.9282 27.0944 11.8157 27.044 11.6061 27.044C10.3448 27.0518 9.08344 27.0479 7.82212 27.0479C7.69017 27.0479 7.55433 27.0479 7.42626 27.0246C7.14295 26.9741 6.9489 26.7219 6.9489 26.4347C6.9489 26.163 7.13519 25.9185 7.40298 25.8564C7.53105 25.8292 7.66688 25.8254 7.79495 25.8254C8.93596 25.8215 10.0731 25.8176 11.2141 25.8292C11.4625 25.8331 11.5091 25.7633 11.447 25.5343C11.2917 24.956 11.1908 24.3622 11.1598 23.7607C11.1481 23.5395 11.086 23.4657 10.857 23.4696C10.0847 23.4851 9.31242 23.4774 8.53622 23.4735C8.07439 23.4735 7.79107 23.229 7.79884 22.8486C7.8066 22.48 8.08603 22.2549 8.53622 22.2549C9.30854 22.251 10.0809 22.2471 10.857 22.2587C11.055 22.2626 11.1171 22.1966 11.1248 22.0065C11.152 21.3972 11.2141 20.7878 11.3577 20.1941C11.4198 19.9379 11.3383 19.9107 11.1171 19.9107C9.73545 19.9185 8.34994 19.9146 6.96831 19.9146C6.44049 19.9146 5.9088 19.8991 5.38098 19.9185C5.00453 19.9457 4.70181 19.8448 4.5 19.5188C4.5 19.3985 4.5 19.2743 4.5 19.154ZM23.3965 7.93403C24.0873 7.93403 24.7781 7.93403 25.469 7.93403C25.6087 7.93403 25.7523 7.93791 25.8881 7.88746C26.2646 7.75162 26.5129 7.36353 26.4547 6.97931C26.3887 6.52523 26.0433 6.23028 25.531 6.2264C24.13 6.21864 22.729 6.22252 21.3241 6.2264C20.7419 6.2264 20.3577 6.58345 20.3655 7.09962C20.3732 7.60415 20.7458 7.93015 21.3241 7.93403C22.0149 7.93403 22.7057 7.93403 23.3965 7.93403ZM23.4276 9.15266C23.0123 9.15266 22.5931 9.16042 22.1779 9.14878C21.9877 9.1449 21.9295 9.21087 21.9373 9.39328C21.9489 9.65719 21.9528 9.92109 21.9373 10.185C21.9256 10.3985 22.011 10.445 22.205 10.4179C22.7794 10.3364 23.3616 10.3713 23.9398 10.3558C24.2542 10.348 24.685 10.5809 24.8519 10.3402C25.011 10.1113 24.8829 9.69212 24.8946 9.35835C24.8984 9.19535 24.8402 9.14878 24.6811 9.15266C24.262 9.16042 23.8467 9.15266 23.4276 9.15266Z" fill="#65AF4C"/>
<path d="M4.5 26.2323C4.57762 26.209 4.5815 26.1237 4.62807 26.0732C4.86869 25.786 5.28008 25.755 5.53622 26.0111C5.78849 26.2634 5.77684 26.6631 5.50906 26.8999C5.23739 27.1366 4.82212 27.0823 4.60867 26.7795C4.56986 26.7213 4.53493 26.6592 4.5 26.5971C4.5 26.4768 4.5 26.3526 4.5 26.2323Z" fill="#65AF4C"/>
<path d="M23.4316 13.2119C28.667 13.2236 32.8973 17.4616 32.8895 22.6932C32.8779 27.9131 28.6088 32.1666 23.3966 32.1472C18.1728 32.1278 13.9387 27.8665 13.9581 22.6466C13.9775 17.4267 18.2194 13.2042 23.4316 13.2119ZM23.4277 14.4344C18.8792 14.4267 15.1806 18.1175 15.1767 22.6699C15.1728 27.2145 18.8753 30.9247 23.416 30.9286C27.9568 30.9325 31.667 27.2262 31.667 22.6815C31.667 18.1252 27.9839 14.4422 23.4277 14.4344Z" fill="#65AF4C"/>
<path d="M31.108 30.9561C31.1118 30.6223 31.3757 30.3623 31.7134 30.3623C32.0472 30.3623 32.3188 30.6301 32.3227 30.9561C32.3266 31.2937 32.0394 31.5732 31.6979 31.5654C31.3602 31.5615 31.1041 31.2937 31.108 30.9561Z" fill="#65AF4C"/>
<path d="M21.5258 22.6509C21.518 22.4607 21.5452 22.2744 21.6189 22.1114C21.716 21.9018 21.6733 21.7699 21.5064 21.6146C21.1338 21.2692 20.7806 20.9044 20.4236 20.5396C20.1248 20.2369 20.1092 19.8798 20.3693 19.6237C20.6215 19.3753 20.9902 19.3947 21.2891 19.6858C21.6577 20.0467 22.0303 20.4154 22.3874 20.788C22.5154 20.92 22.6125 20.9665 22.8026 20.8928C23.2024 20.7375 23.6254 20.7375 24.0251 20.8889C24.2114 20.9588 24.3123 20.9238 24.4443 20.7919C25.3369 19.8876 26.2412 18.9911 27.1377 18.0907C27.2076 18.0209 27.2813 17.9432 27.3628 17.885C27.6112 17.7143 27.9372 17.7492 28.1429 17.9588C28.3486 18.1683 28.3718 18.4982 28.1933 18.7388C28.1273 18.8281 28.0458 18.9057 27.9643 18.9833C27.0795 19.8682 26.1985 20.757 25.3059 21.6341C25.1623 21.7738 25.139 21.8824 25.205 22.0765C25.4533 22.8449 25.2748 23.5357 24.6733 24.0713C24.0717 24.6108 23.3693 24.7233 22.6319 24.3857C21.9061 24.0597 21.5491 23.4504 21.5258 22.6509ZM23.4352 22.0105C23.0549 22.0027 22.7522 22.2977 22.7483 22.6703C22.7444 23.0428 23.051 23.3533 23.4197 23.3533C23.7768 23.3533 24.0795 23.0584 24.0911 22.7013C24.1066 22.3249 23.8117 22.0183 23.4352 22.0105Z" fill="#65AF4C"/>
<path d="M24.0331 16.4373C24.0331 16.5382 24.0409 16.6391 24.0331 16.74C24.0098 17.0738 23.7692 17.3144 23.4509 17.3222C23.1366 17.3338 22.861 17.1087 22.8261 16.7788C22.8028 16.5692 22.8067 16.3519 22.8183 16.1423C22.8416 15.7775 23.1055 15.533 23.4509 15.5486C23.7847 15.5602 24.0137 15.8047 24.0331 16.1617C24.0409 16.2549 24.037 16.3442 24.0331 16.4373Z" fill="#65AF4C"/>
<path d="M29.6527 22.0798C29.7536 22.0798 29.8545 22.076 29.9554 22.0798C30.2892 22.0993 30.5337 22.336 30.5531 22.6504C30.5725 22.9686 30.3319 23.2597 29.9903 23.2907C29.7691 23.3101 29.544 23.3101 29.3228 23.2907C28.9774 23.2558 28.7562 22.9841 28.7756 22.6465C28.795 22.3282 29.0317 22.1031 29.3733 22.0837C29.4703 22.076 29.5634 22.0798 29.6527 22.0798Z" fill="#65AF4C"/>
<path d="M22.8064 28.9105C22.8064 28.8212 22.8025 28.7281 22.8064 28.6388C22.8258 28.2895 23.0703 28.0372 23.4002 28.0295C23.7262 28.0217 23.994 28.2662 24.0212 28.6116C24.0367 28.8134 24.0367 29.0152 24.0212 29.2171C23.9979 29.5625 23.734 29.8147 23.4118 29.8108C23.0781 29.8108 22.8219 29.5469 22.8064 29.1821C22.8064 29.0929 22.8064 28.9997 22.8064 28.9105Z" fill="#65AF4C"/>
<path d="M17.1249 23.291C17.0279 23.2833 16.8843 23.2833 16.7485 23.2522C16.4652 23.1862 16.275 22.9301 16.2866 22.6507C16.2983 22.3557 16.5156 22.1073 16.8183 22.0802C17.0395 22.0608 17.2646 22.0608 17.4897 22.0724C17.8235 22.0918 18.0447 22.3208 18.0641 22.6313C18.0835 22.9611 17.8778 23.2173 17.5402 23.2677C17.416 23.2871 17.2957 23.2833 17.1249 23.291Z" fill="#65AF4C"/>
</g>
<defs>
<clipPath id="clip0_42_2791">
<rect width="32" height="30" fill="white" transform="translate(4 5)"/>
</clipPath>
</defs>
</svg>
