<svg width="40" height="40" viewBox="0 0 40 40" fill="none" xmlns="http://www.w3.org/2000/svg">
<rect width="40" height="40" rx="4" fill="white"/>
<g clip-path="url(#clip0_42_2813)">
<path d="M31.4365 31.5293L28.0722 16.9365C27.8142 15.8007 26.8012 14.9938 25.6349 15.0012H22.7453V12.4981H23.3733C27.1713 12.4944 30.2478 9.41968 30.2515 5.62391C30.2515 5.2802 29.9711 5 29.6272 5H10.8654C10.5215 5 10.2411 5.2802 10.2374 5.62391C10.2411 9.41968 13.3214 12.4944 17.1193 12.4981H17.7436V15.0012H14.8577C13.6914 14.9938 12.6784 15.8007 12.4205 16.9365L9.00378 31.7347C9.00004 31.7833 9.00004 31.8281 9.00378 31.8767V32.5006C9.00752 33.8792 10.1252 34.9963 11.5046 35H28.9992C30.3786 34.9963 31.4963 33.8792 31.5 32.5006V32.0897C31.5038 31.8991 31.4814 31.7123 31.4365 31.5293ZM17.1193 11.2503C14.2484 11.2503 11.8373 9.09838 11.5121 6.24782H28.9656C28.6404 9.09838 26.2292 11.2503 23.3583 11.2503H17.1193ZM21.4967 12.4981V15.0012H18.9922V12.4981H21.4967ZM30.2515 32.5006C30.2478 33.1918 29.6908 33.7484 28.9992 33.7522H11.4897C10.7981 33.7484 10.2411 33.1918 10.2374 32.5006V31.9552L13.6391 17.2242C13.7699 16.66 14.2783 16.2603 14.8577 16.264H25.6311C26.2143 16.2603 26.7189 16.6638 26.8498 17.2316L30.2141 31.8244C30.2365 31.9178 30.2478 32.0112 30.2478 32.1046L30.2515 32.5006Z" fill="#65AF4C"/>
<path d="M20.2442 18.748C16.7901 18.748 13.9902 21.5463 13.9902 24.9984C13.9902 28.4504 16.7901 31.2487 20.2442 31.2487C23.6982 31.2487 26.4981 28.4504 26.4981 24.9984C26.4906 21.55 23.6945 18.7555 20.2442 18.748ZM20.2442 30.0008C17.4779 30.0046 15.2388 27.7667 15.235 25.0021C15.2313 22.2375 17.4705 19.9996 20.2367 19.9959C23.0029 19.9921 25.2421 22.23 25.2458 24.9946V24.9984C25.2458 27.7593 23.0067 29.9971 20.2442 30.0008Z" fill="#65AF4C"/>
<path d="M12.7378 31.8767C12.7378 32.2204 12.4537 32.5006 12.1098 32.4968C11.7659 32.4931 11.4856 32.2129 11.4893 31.8692C11.493 31.5255 11.7697 31.249 12.1136 31.249C12.4575 31.249 12.7378 31.5292 12.7378 31.8729V31.8767Z" fill="#65AF4C"/>
<path d="M20.2445 21.252C19.9529 21.252 19.6987 21.4537 19.6352 21.7376C19.3959 22.8024 18.9922 24.6405 18.9922 24.9992C18.9922 25.6903 19.5529 26.2507 20.2445 26.2507C20.936 26.2507 21.4968 25.6903 21.4968 24.9992C21.4968 24.6256 21.093 22.8024 20.8538 21.7376C20.7902 21.4537 20.536 21.252 20.2445 21.252Z" fill="#65AF4C"/>
</g>
<defs>
<clipPath id="clip0_42_2813">
<rect width="22.5" height="30" fill="white" transform="translate(9 5)"/>
</clipPath>
</defs>
</svg>
