<svg width="528" height="225" viewBox="0 0 528 225" fill="none" xmlns="http://www.w3.org/2000/svg">
<rect width="528" height="225" rx="4" fill="#65AF4C"/>
<path d="M92.5191 97.36V121.92H94.5191V126H92.4791C92.2924 128.933 91.1991 131.267 89.1991 133C87.1457 134.707 84.4657 135.56 81.1591 135.56H77.1991C73.5991 135.56 70.7724 134.573 68.7191 132.6C66.7991 130.733 65.8391 128.213 65.8391 125.04V117.88L68.3191 115.88H70.7191V124.6C70.7191 127.133 71.3591 128.907 72.6391 129.92C73.9191 130.96 76.1057 131.48 79.1991 131.48C82.2124 131.48 84.3324 131.013 85.5591 130.08C86.9457 129.013 87.6391 127.187 87.6391 124.6V97.36H92.5191ZM116.927 98.8C117.647 98.8 118.261 99.0533 118.767 99.56C119.274 100.067 119.527 100.68 119.527 101.4C119.527 102.093 119.274 102.693 118.767 103.2C118.261 103.707 117.647 103.96 116.927 103.96C116.207 103.96 115.594 103.707 115.087 103.2C114.581 102.693 114.327 102.093 114.327 101.4C114.327 100.68 114.581 100.067 115.087 99.56C115.594 99.0533 116.207 98.8 116.927 98.8ZM106.287 114.32C109.861 109.493 114.274 107.08 119.527 107.08C122.727 107.08 125.367 108.08 127.447 110.08C129.341 111.893 130.287 114.187 130.287 116.96V120.64C130.287 120.8 130.274 121.027 130.247 121.32C130.247 121.587 130.247 121.787 130.247 121.92H131.567V126H130.767L129.447 124.36H129.327C128.447 125.453 127.314 126 125.927 126H94.2472V121.92H101.447L101.407 107.6H106.287V114.32ZM125.407 117.2C125.381 115.28 124.647 113.76 123.207 112.64C121.981 111.733 120.501 111.28 118.767 111.28C116.101 111.28 113.634 112.387 111.367 114.6C109.287 116.333 107.594 118.773 106.287 121.92H124.407C125.074 121.92 125.407 121.587 125.407 120.92V117.2ZM146.798 98.8C147.518 98.8 148.132 99.0533 148.638 99.56C149.145 100.067 149.398 100.68 149.398 101.4C149.398 102.093 149.145 102.693 148.638 103.2C148.132 103.707 147.518 103.96 146.798 103.96C146.105 103.96 145.505 103.707 144.998 103.2C144.492 102.693 144.238 102.093 144.238 101.4C144.238 100.68 144.492 100.067 144.998 99.56C145.505 99.0533 146.105 98.8 146.798 98.8ZM139.318 121.92C138.705 121.147 138.225 120.227 137.878 119.16C137.585 118.147 137.438 117.133 137.438 116.12C137.438 113.773 138.118 111.813 139.478 110.24C141.212 108.16 143.652 107.12 146.798 107.12C149.038 107.12 150.905 107.72 152.398 108.92C154.025 110.307 154.838 112.173 154.838 114.52V121.6C154.838 122.693 154.478 123.667 153.758 124.52C152.905 125.507 151.825 126 150.518 126H131.278V121.92H139.318ZM149.958 114.52C149.958 113.427 149.585 112.547 148.838 111.88C148.252 111.427 147.572 111.2 146.798 111.2C145.065 111.2 143.812 111.88 143.038 113.24C142.532 114.093 142.278 115.173 142.278 116.48C142.278 118.267 142.838 119.667 143.958 120.68C144.865 121.507 146.052 121.92 147.518 121.92H148.958C149.625 121.92 149.958 121.587 149.958 120.92V114.52ZM159.783 92.2C159.33 91.5067 159.103 90.7333 159.103 89.88C159.103 88.7867 159.437 87.8933 160.103 87.2C160.77 86.48 161.623 86.12 162.663 86.12C163.41 86.12 164.157 86.24 164.903 86.48V88.6C164.237 88.44 163.73 88.36 163.383 88.36C162.237 88.36 161.663 89 161.663 90.28C161.663 90.8133 161.797 91.2267 162.063 91.52C162.383 91.9733 162.863 92.2 163.503 92.2H166.183V93.2L165.263 94.32H158.183V92.2H159.783ZM164.663 97.36V125L162.183 127H159.783V97.36H164.663ZM185.638 98.8C186.358 98.8 186.971 99.0533 187.478 99.56C187.984 100.067 188.238 100.68 188.238 101.4C188.238 102.093 187.984 102.693 187.478 103.2C186.971 103.707 186.358 103.96 185.638 103.96C184.918 103.96 184.304 103.707 183.798 103.2C183.291 102.693 183.038 102.093 183.038 101.4C183.038 100.68 183.291 100.067 183.798 99.56C184.304 99.0533 184.918 98.8 185.638 98.8ZM191.718 98.8C192.438 98.8 193.051 99.0533 193.558 99.56C194.064 100.067 194.318 100.68 194.318 101.4C194.318 102.093 194.064 102.693 193.558 103.2C193.051 103.707 192.438 103.96 191.718 103.96C191.024 103.96 190.424 103.707 189.918 103.2C189.411 102.693 189.158 102.093 189.158 101.4C189.158 100.68 189.411 100.067 189.918 99.56C190.424 99.0533 191.024 98.8 191.718 98.8ZM194.318 106.52V120.92C194.318 121.24 194.411 121.48 194.598 121.64C194.758 121.827 194.971 121.92 195.238 121.92H196.358V126H193.838C192.611 126 191.504 125.507 190.518 124.52C188.998 125.773 187.304 126.4 185.438 126.4C183.331 126.4 181.518 125.733 179.998 124.4C177.971 122.507 176.958 119.973 176.958 116.8C176.958 113.893 177.891 111.48 179.758 109.56C181.464 107.827 183.558 106.96 186.038 106.96C187.424 106.96 188.811 107.253 190.198 107.84L191.918 106.52H194.318ZM189.438 111.68C188.504 111.333 187.611 111.16 186.758 111.16C185.318 111.16 184.131 111.693 183.198 112.76C182.264 113.8 181.798 115.16 181.798 116.84C181.798 118.52 182.211 119.867 183.038 120.88C183.891 121.893 185.024 122.4 186.438 122.4C187.398 122.4 188.398 122.187 189.438 121.76V111.68ZM201.363 108.28C203.896 107.507 206.203 107.12 208.283 107.12C211.51 107.12 214.11 108.133 216.083 110.16C217.87 111.973 218.763 114.267 218.763 117.04V121.32V121.92H220.083V126H219.243L217.923 124.36H217.843C216.936 125.453 215.803 126 214.443 126H196.043V121.92H212.883C213.55 121.92 213.883 121.587 213.883 120.92V117.32C213.883 115.507 213.27 114.053 212.043 112.96C210.843 111.84 209.256 111.28 207.283 111.28C205.976 111.28 204.003 111.573 201.363 112.16V108.28ZM231.794 114.32C235.367 109.493 239.781 107.08 245.034 107.08C248.234 107.08 250.874 108.08 252.954 110.08C254.847 111.92 255.794 114.213 255.794 116.96V121.6C255.794 122.8 255.381 123.813 254.554 124.64C253.727 125.547 252.701 126 251.474 126H219.754V121.92H226.954V107.6H231.794V114.32ZM250.914 117.2C250.914 115.547 250.381 114.213 249.314 113.2C248.034 111.92 246.354 111.28 244.274 111.28C242.221 111.28 240.221 111.96 238.274 113.32C235.661 115.133 233.501 118 231.794 121.92H249.914C250.581 121.92 250.914 121.587 250.914 120.92V117.2Z" fill="white"/>
<circle cx="387" cy="113" r="80" fill="white"/>
<path d="M362.593 95.7609C362.468 95.6252 361.97 95.0827 361.221 94.6758C360.099 94.1333 358.228 93.9977 356.856 95.2183C355.36 96.439 355.36 98.4735 355.36 98.7448C355.36 100.915 356.731 102.542 357.48 103.356C360.722 107.018 363.965 110.68 367.208 114.342C367.707 115.563 367.582 116.919 366.834 117.598C366.21 118.14 365.212 118.411 364.589 117.869C364.464 117.733 364.339 117.598 364.215 117.462C359.849 112.579 355.484 107.561 351.119 102.678C348.5 99.6942 347.627 96.8459 347.377 96.3034C345.507 92.3701 344.509 88.8436 344.384 88.3011C343.511 85.0459 342.389 81.9264 341.391 78.8069C341.391 78.4 341.017 77.7218 340.393 77.0437C339.021 75.6873 336.901 75.5517 335.28 76.908C335.155 76.908 335.03 77.0437 335.03 77.0437C334.157 77.8574 333.783 79.0781 333.534 80.1632C333.284 81.5195 334.282 83.9609 334.656 85.3172C336.153 90.3356 337.649 95.2184 339.021 100.237L342.015 108.646C342.638 110.409 343.636 112.037 344.758 113.393L357.106 127.499C357.979 128.448 359.6 130.347 360.348 133.738C360.847 135.772 360.722 137.671 360.598 138.892C366.21 143.91 371.822 149.336 377.435 154.625C380.927 143.096 385.417 123.565 379.306 113.8C379.056 113.393 378.682 112.579 378.058 111.901C373.07 105.798 367.831 101.729 362.593 95.7609Z" fill="#006C3C"/>
<path d="M374.816 158.694L358.852 143.367L356.607 145.944L371.199 162.627L374.816 158.694Z" fill="#006C3C"/>
<path d="M415.1 103.356C415.848 102.542 417.22 100.915 417.22 98.7447C417.22 98.4734 417.22 96.4389 415.724 95.2182C414.352 93.9975 412.481 94.1332 411.234 94.6757C410.485 95.0826 409.986 95.6251 409.862 95.7608C404.624 101.729 399.385 105.798 394.147 111.901C393.524 112.579 393.149 113.393 392.9 113.8C386.789 123.701 391.279 143.096 394.771 154.625C400.383 149.335 405.995 144.046 411.608 138.892C411.483 137.671 411.358 135.772 411.857 133.738C412.606 130.483 414.227 128.448 415.1 127.499L427.447 113.393C428.694 112.037 429.567 110.409 430.191 108.646L433.184 100.237C434.556 95.2182 436.177 90.3355 437.549 85.3171C437.924 83.9608 438.921 81.655 438.672 80.1631C438.422 79.078 437.924 77.8573 437.175 77.0435C437.175 76.9079 437.051 76.9079 436.926 76.7723C435.18 75.416 433.06 75.5516 431.812 76.9079C431.189 77.5861 430.939 78.2642 430.815 78.6711C429.817 81.7907 428.694 84.9102 427.821 88.1654C427.697 88.7079 426.699 92.2343 424.828 96.1677C424.579 96.8458 423.706 99.5585 421.086 102.542C416.721 107.425 412.356 112.444 407.991 117.326C407.866 117.462 407.866 117.598 407.617 117.733C406.993 118.276 405.871 118.004 405.372 117.462C404.624 116.784 404.499 115.427 404.998 114.207C408.615 110.68 411.857 107.018 415.1 103.356Z" fill="#006C3C"/>
<path d="M413.728 143.367L397.764 158.694L401.381 162.627L415.973 145.944L413.728 143.367Z" fill="#006C3C"/>
<path d="M394.272 61.9883C391.279 61.9883 388.285 64.0228 385.916 66.4641C383.546 64.0228 380.553 61.9883 377.559 61.9883C376.811 61.9883 372.446 62.1239 369.328 65.786C365.212 70.5331 366.335 77.3147 366.459 78.5354C368.58 91.9629 384.668 101.186 386.04 102.407C387.911 101.322 404.873 91.4204 405.621 77.0434C405.746 74.6021 405.995 69.5837 402.753 65.786C399.51 62.1239 395.02 61.9883 394.272 61.9883ZM394.771 83.5538H388.036V90.8779H384.793V83.5538H378.058V80.0273H384.793V72.7032H388.036V80.0273H394.771V83.5538Z" fill="#006C3C"/>
</svg>
