<svg width="528" height="225" viewBox="0 0 528 225" fill="none" xmlns="http://www.w3.org/2000/svg">
<rect width="528" height="225" rx="4" fill="#006C3C"/>
<path d="M141.936 51.52C142.656 51.52 143.269 51.7733 143.776 52.28C144.283 52.7867 144.536 53.4 144.536 54.12C144.536 54.84 144.283 55.4533 143.776 55.96C143.269 56.4667 142.656 56.72 141.936 56.72C141.243 56.72 140.643 56.4667 140.136 55.96C139.629 55.4533 139.376 54.84 139.376 54.12C139.376 53.4 139.629 52.7867 140.136 52.28C140.643 51.7733 141.243 51.52 141.936 51.52ZM148.056 51.52C148.749 51.52 149.349 51.7733 149.856 52.28C150.363 52.7867 150.616 53.4 150.616 54.12C150.616 54.84 150.363 55.4533 149.856 55.96C149.349 56.4667 148.749 56.72 148.056 56.72C147.336 56.72 146.723 56.4667 146.216 55.96C145.709 55.4533 145.456 54.84 145.456 54.12C145.456 53.4 145.709 52.7867 146.216 52.28C146.723 51.7733 147.336 51.52 148.056 51.52ZM161.816 52.6V66.6C161.816 67.72 161.469 68.6667 160.776 69.44C159.923 70.48 158.829 71 157.496 71H135.096C133.363 71 131.869 70.44 130.616 69.32C128.936 67.9067 128.096 66.0667 128.096 63.8V57.48L130.576 55.48H132.976V63.8C132.976 64.7333 133.296 65.4933 133.936 66.08C134.549 66.64 135.256 66.92 136.056 66.92H155.936C156.603 66.92 156.936 66.5867 156.936 65.92V52.6H161.816ZM172.234 42.36V65.92C172.234 66.1867 172.314 66.4 172.474 66.56C172.634 66.8 172.887 66.92 173.234 66.92H174.274V71H171.674C170.58 71 169.62 70.6133 168.794 69.84C167.834 68.96 167.354 67.88 167.354 66.6V42.36H172.234ZM179.285 53.28C181.818 52.5067 184.125 52.12 186.205 52.12C189.432 52.12 192.032 53.1333 194.005 55.16C195.792 56.9733 196.685 59.2667 196.685 62.04V66.32V66.92H198.005V71H197.165L195.845 69.36H195.765C194.858 70.4533 193.725 71 192.365 71H173.965V66.92H190.805C191.472 66.92 191.805 66.5867 191.805 65.92V62.32C191.805 60.5067 191.192 59.0533 189.965 57.96C188.765 56.84 187.178 56.28 185.205 56.28C183.898 56.28 181.925 56.5733 179.285 57.16V53.28ZM184.885 73.92C185.605 73.92 186.218 74.1733 186.725 74.68C187.232 75.1867 187.485 75.8 187.485 76.52C187.485 77.24 187.232 77.8533 186.725 78.36C186.218 78.8667 185.605 79.12 184.885 79.12C184.192 79.12 183.592 78.8667 183.085 78.36C182.578 77.8533 182.325 77.24 182.325 76.52C182.325 75.8 182.578 75.1867 183.085 74.68C183.592 74.1733 184.192 73.92 184.885 73.92ZM201.596 43.8C202.316 43.8 202.929 44.0533 203.436 44.56C203.943 45.0667 204.196 45.68 204.196 46.4C204.196 47.0933 203.943 47.6933 203.436 48.2C202.929 48.7067 202.316 48.96 201.596 48.96C200.876 48.96 200.263 48.7067 199.756 48.2C199.249 47.6933 198.996 47.0933 198.996 46.4C198.996 45.68 199.249 45.0667 199.756 44.56C200.263 44.0533 200.876 43.8 201.596 43.8ZM207.676 43.8C208.396 43.8 209.009 44.0533 209.516 44.56C210.023 45.0667 210.276 45.68 210.276 46.4C210.276 47.0933 210.023 47.6933 209.516 48.2C209.009 48.7067 208.396 48.96 207.676 48.96C206.983 48.96 206.383 48.7067 205.876 48.2C205.369 47.6933 205.116 47.0933 205.116 46.4C205.116 45.68 205.369 45.0667 205.876 44.56C206.383 44.0533 206.983 43.8 207.676 43.8ZM209.756 52.6V66.32V66.92H211.796V71H210.396L208.916 69.36H208.836C207.929 70.4533 206.796 71 205.436 71H197.716V66.92H203.756C204.129 66.92 204.396 66.8133 204.556 66.6C204.796 66.3867 204.916 66.12 204.916 65.8V52.6H209.756ZM221.105 43.8C221.825 43.8 222.438 44.0533 222.945 44.56C223.452 45.0667 223.705 45.68 223.705 46.4C223.705 47.0933 223.452 47.6933 222.945 48.2C222.438 48.7067 221.825 48.96 221.105 48.96C220.412 48.96 219.812 48.7067 219.305 48.2C218.798 47.6933 218.545 47.0933 218.545 46.4C218.545 45.68 218.798 45.0667 219.305 44.56C219.812 44.0533 220.412 43.8 221.105 43.8ZM223.545 52.6V66.32V66.92H225.585V71H224.185L222.705 69.36H222.625C221.718 70.4533 220.585 71 219.225 71H211.505V66.92H217.545C217.918 66.92 218.185 66.8133 218.345 66.6C218.585 66.3867 218.705 66.12 218.705 65.8V52.6H223.545ZM232.454 59.52C232.454 56.9867 233.334 55.0667 235.094 53.76C236.481 52.6933 238.374 52.16 240.774 52.16C243.121 52.16 245.107 52.8533 246.734 54.24C248.787 56 249.814 58.4933 249.814 61.72C249.814 64.76 249.001 67.28 247.374 69.28C245.801 71.2267 243.761 72.2 241.254 72.2C239.041 72.2 237.294 71.3733 236.014 69.72C235.161 70.5733 234.121 71 232.894 71H225.254V66.92H231.414C231.707 66.92 231.961 66.8133 232.174 66.6C232.361 66.4133 232.454 66.1867 232.454 65.92V59.52ZM237.294 66.48C238.281 67.5467 239.414 68.08 240.694 68.08C241.947 68.08 242.974 67.5333 243.774 66.44C244.574 65.32 244.974 63.88 244.974 62.12C244.974 60.2 244.534 58.6933 243.654 57.6C242.854 56.6667 241.814 56.2 240.534 56.2C239.574 56.2 238.814 56.5067 238.254 57.12C237.614 57.7067 237.294 58.5067 237.294 59.52V66.48ZM135.532 98.8C136.252 98.8 136.866 99.0533 137.372 99.56C137.879 100.067 138.132 100.68 138.132 101.4C138.132 102.093 137.879 102.693 137.372 103.2C136.866 103.707 136.252 103.96 135.532 103.96C134.812 103.96 134.199 103.707 133.692 103.2C133.186 102.693 132.932 102.093 132.932 101.4C132.932 100.68 133.186 100.067 133.692 99.56C134.199 99.0533 134.812 98.8 135.532 98.8ZM141.612 98.8C142.332 98.8 142.946 99.0533 143.452 99.56C143.959 100.067 144.212 100.68 144.212 101.4C144.212 102.093 143.959 102.693 143.452 103.2C142.946 103.707 142.332 103.96 141.612 103.96C140.919 103.96 140.319 103.707 139.812 103.2C139.306 102.693 139.052 102.093 139.052 101.4C139.052 100.68 139.306 100.067 139.812 99.56C140.319 99.0533 140.919 98.8 141.612 98.8ZM144.212 106.52V120.92C144.212 121.24 144.306 121.48 144.492 121.64C144.652 121.827 144.866 121.92 145.132 121.92H146.252V126H143.732C142.506 126 141.399 125.507 140.412 124.52C138.892 125.773 137.199 126.4 135.332 126.4C133.226 126.4 131.412 125.733 129.892 124.4C127.866 122.507 126.852 119.973 126.852 116.8C126.852 113.893 127.786 111.48 129.652 109.56C131.359 107.827 133.452 106.96 135.932 106.96C137.319 106.96 138.706 107.253 140.092 107.84L141.812 106.52H144.212ZM139.332 111.68C138.399 111.333 137.506 111.16 136.652 111.16C135.212 111.16 134.026 111.693 133.092 112.76C132.159 113.8 131.692 115.16 131.692 116.84C131.692 118.52 132.106 119.867 132.932 120.88C133.786 121.893 134.919 122.4 136.332 122.4C137.292 122.4 138.292 122.187 139.332 121.76V111.68ZM158.018 107.6V121.32V121.92H160.058V126H158.658L157.178 124.36H157.098C156.191 125.453 155.058 126 153.698 126H145.978V121.92H152.018C152.391 121.92 152.658 121.813 152.818 121.6C153.058 121.387 153.178 121.12 153.178 120.8V107.6H158.018ZM149.338 128.92C150.058 128.92 150.671 129.173 151.178 129.68C151.684 130.187 151.938 130.8 151.938 131.52C151.938 132.24 151.684 132.853 151.178 133.36C150.671 133.867 150.058 134.12 149.338 134.12C148.618 134.12 148.004 133.867 147.498 133.36C146.991 132.853 146.738 132.24 146.738 131.52C146.738 130.8 146.991 130.187 147.498 129.68C148.004 129.173 148.618 128.92 149.338 128.92ZM155.418 128.92C156.138 128.92 156.751 129.173 157.258 129.68C157.764 130.187 158.018 130.8 158.018 131.52C158.018 132.24 157.764 132.853 157.258 133.36C156.751 133.867 156.138 134.12 155.418 134.12C154.724 134.12 154.124 133.867 153.618 133.36C153.111 132.853 152.858 132.24 152.858 131.52C152.858 130.8 153.111 130.187 153.618 129.68C154.124 129.173 154.724 128.92 155.418 128.92ZM165.327 114.64C166.233 112.027 167.887 110.04 170.287 108.68C172.073 107.667 174.007 107.16 176.087 107.16C178.167 107.16 180.073 107.72 181.807 108.84C183.967 110.147 185.513 112.08 186.447 114.64L185.967 115.76C184.9 116.24 183.78 117.067 182.607 118.24C181.487 119.467 180.753 120.693 180.407 121.92H186.847V126H178.047C177.3 126 176.62 125.653 176.007 124.96H175.807C175.193 125.653 174.487 126 173.687 126H159.767V121.92H171.367C171.047 120.827 170.367 119.667 169.327 118.44C168.18 117.16 166.993 116.267 165.767 115.76L165.327 114.64ZM181.327 114.32C180.687 113.2 179.82 112.373 178.727 111.84C177.9 111.44 176.98 111.24 175.967 111.24C174.9 111.24 173.887 111.467 172.927 111.92C171.86 112.453 171.033 113.253 170.447 114.32C171.353 114.72 172.313 115.52 173.327 116.72C174.447 117.973 175.273 119.333 175.807 120.8H175.967C176.473 119.307 177.34 117.88 178.567 116.52C179.553 115.427 180.473 114.693 181.327 114.32ZM198.604 107.6V121.32V121.92H200.644V126H199.244L197.764 124.36H197.684C196.777 125.453 195.644 126 194.284 126H186.564V121.92H192.604C192.977 121.92 193.244 121.813 193.404 121.6C193.644 121.387 193.764 121.12 193.764 120.8V107.6H198.604ZM189.924 128.92C190.644 128.92 191.257 129.173 191.764 129.68C192.27 130.187 192.524 130.8 192.524 131.52C192.524 132.24 192.27 132.853 191.764 133.36C191.257 133.867 190.644 134.12 189.924 134.12C189.204 134.12 188.59 133.867 188.084 133.36C187.577 132.853 187.324 132.24 187.324 131.52C187.324 130.8 187.577 130.187 188.084 129.68C188.59 129.173 189.204 128.92 189.924 128.92ZM196.004 128.92C196.724 128.92 197.337 129.173 197.844 129.68C198.35 130.187 198.604 130.8 198.604 131.52C198.604 132.24 198.35 132.853 197.844 133.36C197.337 133.867 196.724 134.12 196.004 134.12C195.31 134.12 194.71 133.867 194.204 133.36C193.697 132.853 193.444 132.24 193.444 131.52C193.444 130.8 193.697 130.187 194.204 129.68C194.71 129.173 195.31 128.92 196.004 128.92ZM212.393 107.6V121.32V121.92H214.433V126H213.033L211.553 124.36H211.473C210.566 125.453 209.433 126 208.073 126H200.353V121.92H206.393C206.766 121.92 207.033 121.813 207.193 121.6C207.433 121.387 207.553 121.12 207.553 120.8V107.6H212.393ZM209.833 128.92C210.526 128.92 211.126 129.173 211.633 129.68C212.139 130.187 212.393 130.8 212.393 131.52C212.393 132.24 212.139 132.853 211.633 133.36C211.126 133.867 210.526 134.12 209.833 134.12C209.113 134.12 208.499 133.867 207.993 133.36C207.486 132.853 207.233 132.24 207.233 131.52C207.233 130.8 207.486 130.187 207.993 129.68C208.499 129.173 209.113 128.92 209.833 128.92ZM226.142 97.36V114.32C229.715 109.493 234.155 107.08 239.462 107.08C242.635 107.08 245.248 108.093 247.302 110.12C249.195 111.96 250.142 114.24 250.142 116.96V121.6C250.142 122.853 249.675 123.92 248.742 124.8C247.888 125.6 246.915 126 245.822 126H214.102V121.92H221.302V97.36H226.142ZM245.262 117.2C245.235 115.547 244.688 114.213 243.622 113.2C242.395 111.92 240.728 111.28 238.622 111.28C236.488 111.28 234.448 111.987 232.502 113.4C229.995 115.213 227.875 118.053 226.142 121.92H244.262C244.928 121.92 245.262 121.587 245.262 120.92V117.2ZM149.586 153.4C151.612 153.4 153.212 154.2 154.386 155.8C155.506 157.373 156.066 159.427 156.066 161.96C156.066 164.493 155.506 166.493 154.386 167.96C153.266 169.4 151.679 170.12 149.626 170.12C147.466 170.12 145.839 169.36 144.746 167.84C143.679 166.4 143.146 164.453 143.146 162C143.146 159.467 143.679 157.44 144.746 155.92C145.839 154.24 147.452 153.4 149.586 153.4ZM168.266 154.08L152.426 181H148.506L164.386 154.08H168.266ZM149.586 155.96C148.519 155.96 147.732 156.52 147.226 157.64C146.746 158.707 146.506 160.16 146.506 162C146.506 163.6 146.706 164.867 147.106 165.8C147.586 166.973 148.412 167.56 149.586 167.56C150.732 167.56 151.572 166.973 152.106 165.8C152.506 164.813 152.706 163.547 152.706 162C152.706 160.187 152.452 158.733 151.946 157.64C151.386 156.52 150.599 155.96 149.586 155.96ZM167.226 165C169.279 165 170.879 165.8 172.026 167.4C173.172 169.027 173.746 171.08 173.746 173.56C173.746 176.067 173.172 178.067 172.026 179.56C170.906 181 169.319 181.72 167.266 181.72C165.106 181.72 163.479 180.96 162.386 179.44C161.319 178 160.786 176.04 160.786 173.56C160.786 171.053 161.319 169.027 162.386 167.48C163.532 165.827 165.146 165 167.226 165ZM167.226 167.56C166.159 167.56 165.386 168.12 164.906 169.24C164.399 170.28 164.146 171.72 164.146 173.56C164.146 175.08 164.346 176.36 164.746 177.4C165.226 178.573 166.052 179.16 167.226 179.16C168.399 179.16 169.239 178.56 169.746 177.36C170.146 176.427 170.346 175.16 170.346 173.56C170.346 171.773 170.092 170.333 169.586 169.24C169.079 168.12 168.292 167.56 167.226 167.56ZM187.577 152.36V178.84L185.097 181H182.697V157.92L178.057 161.84L175.737 158.92L183.497 152.36H187.577ZM201.395 151.72C204.462 151.747 206.835 153.187 208.515 156.04C210.169 158.867 210.995 162.493 210.995 166.92C210.995 171.4 210.169 174.947 208.515 177.56C206.889 180.147 204.529 181.44 201.435 181.44C198.235 181.44 195.822 180.08 194.195 177.36C192.622 174.693 191.835 171.227 191.835 166.96C191.835 162.587 192.622 158.987 194.195 156.16C195.849 153.2 198.249 151.72 201.395 151.72ZM206.115 167C206.115 164.147 205.822 161.76 205.235 159.84C204.435 157.2 203.155 155.867 201.395 155.84C199.822 155.84 198.649 156.893 197.875 159C197.102 161.133 196.715 163.787 196.715 166.96C196.715 169.813 197.022 172.16 197.635 174C198.355 176.187 199.609 177.28 201.395 177.28C204.542 177.28 206.115 173.853 206.115 167ZM223.505 151.72C226.572 151.747 228.945 153.187 230.625 156.04C232.278 158.867 233.105 162.493 233.105 166.92C233.105 171.4 232.278 174.947 230.625 177.56C228.998 180.147 226.638 181.44 223.545 181.44C220.345 181.44 217.932 180.08 216.305 177.36C214.732 174.693 213.945 171.227 213.945 166.96C213.945 162.587 214.732 158.987 216.305 156.16C217.958 153.2 220.358 151.72 223.505 151.72ZM228.225 167C228.225 164.147 227.932 161.76 227.345 159.84C226.545 157.2 225.265 155.867 223.505 155.84C221.932 155.84 220.758 156.893 219.985 159C219.212 161.133 218.825 163.787 218.825 166.96C218.825 169.813 219.132 172.16 219.745 174C220.465 176.187 221.718 177.28 223.505 177.28C226.652 177.28 228.225 173.853 228.225 167Z" fill="white"/>
<circle cx="389" cy="113" r="80" fill="white"/>
<g clip-path="url(#clip0_42_2737)">
<path d="M389.18 167.495C388.855 167.713 388.759 167.442 388.567 167.264C388.444 167.688 388.186 167.841 387.777 167.654C387.777 166.527 387.684 165.395 387.797 164.284C388.015 162.161 387.577 160.093 387.416 158.003C387.186 155.004 386.833 152.015 386.615 149.015C386.005 140.636 385.873 132.246 386.171 123.849C386.235 122.042 386.331 120.235 386.412 118.419C382.857 117.013 381.046 114.003 379.383 110.862C378.446 109.093 377.762 107.216 377.161 105.279C377.328 105.491 377.497 105.702 377.663 105.917C378.729 107.3 379.948 108.522 381.364 109.557C385.012 112.227 385.187 112.471 386.778 116.585C386.99 115.85 387.16 115.19 387.368 114.542C388.153 112.1 389.617 110.112 391.525 108.434C393.067 107.079 394.625 105.744 396.174 104.402C396.185 105.611 394.683 109.713 393.346 112.118C391.968 114.598 390.745 115.922 387.791 118.14C386.891 131.373 387.42 144.58 388.618 157.789C390.225 149.117 392.541 140.642 395.762 132.42C393.362 129.604 393.101 126.228 393.1 122.794C393.1 121.228 393.288 119.671 393.508 118.119C393.529 117.977 393.526 117.82 393.727 117.716C394.091 120.223 395.012 122.514 396.243 124.694C397.426 126.79 397.685 129.025 397.126 131.431C397.57 131.219 397.733 130.846 397.986 130.574C399.716 128.718 401.798 127.462 404.259 126.84C406.189 126.353 408.127 125.892 410.068 125.373C406.453 129.273 402.671 132.87 396.849 133.191C395.903 135.565 395.033 138.053 394.237 140.564C392.188 147.02 390.605 153.592 389.411 160.258C389.069 162.17 388.879 164.078 389.177 166.017C389.255 166.51 389.339 167.028 389.18 167.495Z" fill="#65AF4C"/>
<path d="M386.024 167.781C385.82 167.935 385.645 168.058 385.365 167.972C383.418 156.23 381.099 144.564 376.923 133.359C374.274 133.419 371.828 132.424 369.623 131.028C367.319 129.57 365.08 127.868 363.251 125.837C363.478 125.669 364.674 126.382 364.992 126.507C365.657 126.768 366.337 126.988 367.025 127.179C368.323 127.541 369.658 127.717 370.961 128.051C373.424 128.681 374.945 130.134 376.749 131.793C376.032 129.219 375.759 126.785 376.4 124.161C377.034 121.565 378.132 119.097 378.841 116.518C380.388 121.072 381.091 128.684 378.074 132.625C382.282 143.963 384.807 155.696 386.024 167.781Z" fill="#65AF4C"/>
<path d="M395.921 96.166C395.677 97.9668 395.619 99.9173 395.039 101.649C394.493 103.277 393.398 104.438 392.157 105.572C390.921 106.701 389.634 107.702 388.672 109.092C387.739 110.443 387.097 111.97 386.634 113.539C385.95 110.257 382.681 109.054 380.643 106.771C379.6 105.605 378.78 104.258 378.128 102.838C377.47 101.406 376.678 99.6628 376.567 98.0805C379.328 101.674 385.696 103.135 386.361 108.177C387.07 105.521 387.64 102.981 389.413 100.79C391.141 98.6571 393.676 97.6391 395.921 96.166Z" fill="#65AF4C"/>
<path d="M387.348 86.2111C387.067 84.4227 386.897 81.908 385.637 80.4991C385.035 79.8268 384.202 79.3605 383.525 78.7648C382.811 78.1364 382.15 77.4438 381.595 76.6701C380.406 75.0135 379.802 73.0472 379.77 71.0121C379.735 68.8972 380.14 66.2202 381.301 64.4082C381.645 66.0626 381.864 67.8262 382.412 69.4265C382.953 71.0099 384.007 72.2273 384.839 73.6519C385.657 75.054 386.291 76.5541 386.797 78.0947C387.245 79.4608 387.388 81.0577 387.969 82.3596C388.605 79.4878 389.325 76.8796 391.058 74.447C392.635 72.2352 394.529 70.3364 394.982 67.5367C395.559 70.9288 395.352 74.5472 393.933 77.7152C392.407 81.1219 389.143 82.9947 387.348 86.2111Z" fill="#65AF4C"/>
<path d="M378.777 76.0508C380.779 78.2367 383.248 80.0645 384.896 82.5556C386.415 84.8508 386.945 87.3982 387.336 90.0751C387.815 88.6787 388.234 87.2856 389.025 86.0231C389.805 84.7776 390.831 83.9172 391.944 82.9892C393.053 82.0635 394 80.9621 394.804 79.7649C395.175 79.2131 395.515 78.641 395.835 78.0576C396.029 77.704 396.401 76.4911 396.809 76.3909C396.838 79.5566 396.475 82.8664 394.75 85.6008C393.836 87.0513 392.613 88.1336 391.237 89.1336C389.717 90.2384 387.773 91.5223 386.929 93.2622C386.67 92.9739 386.731 92.6012 386.665 92.2498C386.589 91.8365 386.423 91.4187 386.253 91.0358C385.957 90.3691 385.557 89.7542 385.098 89.19C383.925 87.7529 382.376 86.6774 381.148 85.2934C378.971 82.8394 378.42 79.2277 378.777 76.0508Z" fill="#65AF4C"/>
<path d="M360.228 101.184C360.491 100.785 359.864 99.744 359.736 99.3149C359.558 98.7225 359.409 98.1223 359.289 97.5152C359.014 96.1267 358.898 94.7099 358.937 93.2954C359.016 90.4642 359.806 87.6915 358.711 84.9414C361.009 87.4843 362.572 91.0577 363.04 94.4351C363.546 98.0783 361.924 101.483 362.072 105.126C360.857 103.366 359.131 101.154 356.95 100.628C354.987 100.156 353.167 99.9422 351.404 98.8486C349.88 97.9026 348.643 96.5726 347.725 95.0376C347.224 94.1998 346.816 93.3078 346.482 92.3922C346.122 91.4046 345.615 90.1692 345.615 89.115C346.122 89.1083 346.921 90.418 347.224 90.7717C347.712 91.3404 348.205 91.8956 348.768 92.3934C349.976 93.4621 351.364 94.0421 352.775 94.7809C355.722 96.3237 358.084 98.6865 360.228 101.184Z" fill="#65AF4C"/>
<path d="M359.162 119.778C363.12 121.774 369.377 120.286 372.268 124.257C371.778 121.714 371.037 119.385 371.372 116.752C371.701 114.172 373.165 112.108 374.368 109.872C375.865 112.679 377.196 115.746 376.28 118.966C375.827 120.557 375.108 122.026 374.822 123.672C374.518 125.422 374.762 127.052 374.948 128.794C373.059 126.213 369.561 126.586 366.857 125.537C363.952 124.413 361.036 122.274 359.162 119.778Z" fill="#65AF4C"/>
<path d="M388.592 57C390.57 60.0429 392.208 63.8145 391.798 67.5219C391.586 69.4421 390.762 71.0897 389.954 72.8116C389.535 73.7047 389.135 74.6068 388.772 75.5246C388.454 76.3321 388.253 77.2285 387.821 77.9797C387.716 76.171 386.873 74.5673 385.948 73.0515C384.859 71.2665 383.983 69.7045 384.005 67.5433C384.046 63.6006 386.296 60.0407 388.592 57Z" fill="#65AF4C"/>
<path d="M364.097 108.384C363.794 106.939 363.374 105.538 363.374 104.048C363.375 102.569 363.861 101.364 364.304 99.9834C365.156 97.3234 364.967 94.5451 364.686 91.8096C366.502 94.5113 367.963 97.8211 367.87 101.129C367.822 102.845 367.338 104.406 366.688 105.979C366.009 107.623 365.516 109.333 365.108 111.064C362.778 108.098 359.065 108.161 355.901 106.683C353.07 105.361 351.206 102.982 350.007 100.149C352.935 101.088 356.11 101.799 358.805 103.317C359.92 103.944 360.918 104.751 361.804 105.673C362.246 106.133 362.658 106.622 363.049 107.129C363.322 107.477 363.658 108.206 364.097 108.384Z" fill="#65AF4C"/>
<path d="M400.403 124.2C401.843 122.342 403.6 120.737 405.791 119.818C408.137 118.835 410.636 119.342 413.02 118.63C411.506 121.057 409.822 123.615 407 124.623C405.468 125.169 403.825 125.185 402.304 125.806C400.714 126.455 399.394 127.523 398.35 128.877C399.173 125.732 396.835 123.175 396.107 120.263C395.356 117.253 395.676 114.281 396.254 111.277C397.165 113.48 398.224 115.6 399.252 117.751C399.734 118.759 400.235 119.773 400.497 120.866C400.787 122.054 400.599 123.026 400.403 124.2Z" fill="#65AF4C"/>
<path d="M347.993 79.3369C350.877 80.9496 353.811 82.8067 355.579 85.6863C356.538 87.2472 357.04 88.9376 357.148 90.762C357.274 92.8759 357.556 94.9683 357.814 97.0709C356.328 95.5866 354.928 94.6035 353.073 93.6372C351.665 92.9029 350.484 91.8083 349.659 90.4501C347.61 87.076 347.939 83.113 347.993 79.3369Z" fill="#65AF4C"/>
<path d="M414.35 100.142C416.479 98.1277 418.474 96.1592 421.172 94.9125C423.551 93.8122 426.242 93.293 427.957 91.1364C427.808 92.5824 426.386 94.3134 425.513 95.4249C424.509 96.7054 423.314 97.8383 421.944 98.7224C420.549 99.6233 419.018 100.216 417.409 100.609C415.43 101.093 413.632 101.846 411.99 103.071C412.35 102.083 412.723 101.099 413.071 100.106C413.449 99.0264 413.22 98.4363 412.718 97.4419C411.918 95.854 411.444 94.0859 411.625 92.3009C411.968 88.9133 414.543 85.8039 417.303 83.9941C416.82 85.3298 416.234 86.67 415.922 88.0585C415.608 89.4573 415.814 90.7242 415.897 92.1286C416.06 94.9136 415.292 97.5534 414.35 100.142Z" fill="#65AF4C"/>
<path d="M377.752 84.3721C378.782 85.6368 379.733 87.0546 381.13 87.9454C382.295 88.6865 383.559 89.1696 384.564 90.1483C385.398 90.9614 386.007 91.9693 386.378 93.0707C386.579 93.6631 386.712 94.2769 386.796 94.8963C386.882 95.5235 386.768 96.2848 386.981 96.875C388.12 94.8129 389.178 92.734 390.971 91.1483C392.734 89.5897 394.828 88.5063 396.552 86.8654C396.635 88.2912 396.106 90.03 395.621 91.3645C395.149 92.6642 394.464 93.8804 393.572 94.9379C392.71 95.9616 391.669 96.8186 390.526 97.5112C389.917 97.8806 389.279 98.2027 388.625 98.4843C387.904 98.794 387.123 98.9742 386.607 99.5992C386.848 98.143 385.867 97.179 384.963 96.2015C383.842 94.9909 382.457 94.1158 381.296 92.9592C379.001 90.6742 378.228 87.5265 377.625 84.4532C377.667 84.4273 377.709 84.4002 377.752 84.3721Z" fill="#65AF4C"/>
<path d="M409.351 92.9941C411.094 97.3311 412.462 101.627 410.143 106.166C410.207 106.179 410.271 106.193 410.334 106.207C412.236 104.152 414.196 102.508 417.023 101.969C420.003 101.4 422.538 100.103 425.124 98.562C425.545 99.1059 422.871 101.89 422.443 102.323C421.299 103.483 419.976 104.464 418.506 105.174C415.222 106.758 411.105 106.076 408.398 108.809C409.067 105.967 407.327 103.342 406.789 100.64C406.24 97.8761 407.72 95.1249 409.351 92.9941Z" fill="#65AF4C"/>
<path d="M370.106 101.627C373.02 107.19 371.96 112.321 368.438 117.196C368.067 116.827 367.936 116.083 367.765 115.605C366.489 114.867 365.08 114.414 363.647 114.095C362.239 113.782 360.77 113.683 359.423 113.139C356.802 112.08 354.998 109.863 353.178 107.805C353.449 107.485 354.679 108.305 354.979 108.423C355.625 108.681 356.289 108.887 356.967 109.044C358.382 109.369 359.795 109.264 361.211 109.482C364.006 109.913 365.627 112.146 367.353 114.133C367.127 112.019 366.932 109.9 367.553 107.829C367.869 106.771 368.444 105.851 368.91 104.86C369.399 103.82 369.792 102.734 370.106 101.627Z" fill="#65AF4C"/>
<path d="M344 127.893C344.327 127.728 344.578 127.835 344.839 127.9C351.663 129.566 357.643 132.854 363.012 137.327C369.3 142.564 373.918 149.1 377.761 156.239C379.254 159.014 380.631 161.846 381.795 164.779C381.88 164.995 381.954 165.217 381.979 165.458C381.202 163.916 380.429 162.381 379.61 160.867C373.143 148.907 363.978 139.585 352.232 132.771C349.762 131.338 347.247 129.985 344.716 128.661C344.416 128.503 344.018 128.396 344 127.893Z" fill="#65AF4C"/>
<path d="M427.442 80.7041C427.513 85.4149 426.469 89.5176 422.514 92.3747C420.658 93.716 418.626 94.8073 416.872 96.3637C417.568 94.3962 417.139 92.386 417.279 90.4107C417.415 88.495 418.3 86.9116 419.572 85.5287C421.694 83.2177 424.411 81.8641 427.442 80.7041Z" fill="#65AF4C"/>
<path d="M400.164 104.673C400.369 105.709 400.54 106.76 400.797 107.784C401.068 108.866 401.653 109.652 402.213 110.592C403.3 112.415 403.96 114.45 403.81 116.591C405.744 115.238 407.622 113.908 409.916 113.234C410.988 112.92 412.096 112.741 413.212 112.694C414.531 112.638 415.776 112.36 417.082 112.205C413.892 116.911 409.131 118.724 403.76 117.396C403.443 118.647 402.854 119.788 402.188 120.982C401.067 118.391 399.6 115.749 399.095 112.949C398.599 110.184 399.202 107.272 400.164 104.673Z" fill="#65AF4C"/>
<path d="M421.655 105.39C419.956 108.052 417.587 110.264 414.512 111.183C412.752 111.709 410.877 111.764 409.075 112.092C408.245 112.243 406.981 112.262 406.374 112.906C405.812 113.502 405.424 114.458 405.005 115.162C404.844 113.845 404.723 112.536 404.329 111.262C403.912 109.905 403.182 108.691 402.896 107.288C402.355 104.627 402.913 101.411 404.442 99.1475C404.666 100.253 404.81 101.421 405.165 102.493C405.518 103.558 406.291 104.373 406.743 105.39C407.662 107.459 407.358 109.47 406.841 111.587C407.381 111.337 407.856 110.646 408.32 110.253C408.831 109.82 409.377 109.428 409.954 109.088C411.058 108.437 412.268 107.98 413.519 107.704C414.912 107.396 416.332 107.351 417.71 106.951C419.077 106.554 420.352 105.948 421.655 105.39Z" fill="#65AF4C"/>
<path d="M432.979 133.631C425.958 134.179 419.089 136.099 413.16 139.974C407.449 143.706 402.868 149.004 399.056 154.608C396.801 157.922 394.908 161.42 393.14 165.011C392.739 164.633 394.735 161.121 395.003 160.567C395.8 158.919 396.648 157.294 397.55 155.699C399.379 152.468 401.437 149.364 403.743 146.454C408.095 140.963 413.294 136.093 420.177 134.112C422.332 133.492 424.564 133.154 426.804 133.086C428.811 133.025 431.053 133.012 432.979 133.631Z" fill="#65AF4C"/>
<path d="M386.604 104.637C384.365 102.488 381.54 100.909 379.636 98.4226C377.925 96.1893 377.139 93.455 376.415 90.7803C377.403 91.8513 378.29 92.8986 379.503 93.7376C380.777 94.6183 382.161 95.2523 383.323 96.2997C385.657 98.4023 387.122 101.465 386.604 104.637Z" fill="#65AF4C"/>
<path d="M355.462 113.605C356.904 114.166 358.378 114.887 359.939 115.004C361.579 115.127 363.048 115.079 364.648 115.575C367.547 116.477 369.57 118.177 370.626 121.041C367.831 120.27 364.854 120.104 362.178 118.923C359.579 117.777 357.327 115.71 355.462 113.605Z" fill="#65AF4C"/>
</g>
<defs>
<clipPath id="clip0_42_2737">
<rect width="88.9786" height="111" fill="white" transform="translate(344 57)"/>
</clipPath>
</defs>
</svg>
