<svg width="160" height="160" viewBox="0 0 160 160" fill="none" xmlns="http://www.w3.org/2000/svg">
<circle cx="80" cy="80" r="80" fill="white"/>
<g clip-path="url(#clip0_42_2740)">
<path d="M80.1804 134.495C79.8549 134.713 79.7592 134.442 79.5666 134.264C79.4439 134.688 79.186 134.841 78.7772 134.654C78.7772 133.527 78.6837 132.395 78.7974 131.284C79.0148 129.161 78.5767 127.093 78.4157 125.003C78.1859 122.004 77.8334 119.015 77.615 116.015C77.0046 107.636 76.8728 99.2461 77.1712 90.8493C77.2354 89.0418 77.3312 87.2354 77.4122 85.4188C73.8569 84.0133 72.046 81.0031 70.3826 77.8621C69.4456 76.0929 68.762 74.2155 68.1606 72.2785C68.3284 72.4914 68.4974 72.702 68.6629 72.9171C69.7294 74.3 70.9479 75.5219 72.3636 76.5569C76.0124 79.2271 76.187 79.4714 77.7782 83.5854C77.99 82.85 78.16 82.1901 78.3684 81.5425C79.1533 79.0998 80.6174 77.1121 82.5251 75.4341C84.0669 74.0793 85.6255 72.7436 87.174 71.4023C87.1853 72.6107 85.6829 76.7134 84.3461 79.1178C82.9677 81.5977 81.7447 82.9221 78.7907 85.1395C77.8909 98.3733 78.4202 111.58 79.6184 124.789C81.2255 116.117 83.5409 107.642 86.7618 99.4195C84.3619 96.6041 84.1006 93.2278 84.0995 89.794C84.0995 88.2275 84.2876 86.6711 84.5083 85.1193C84.5286 84.9774 84.5263 84.8197 84.7268 84.7161C85.0906 87.223 86.0118 89.5136 87.2427 91.6939C88.4263 93.7897 88.6853 96.0252 88.1256 98.4307C88.5705 98.219 88.7326 97.8463 88.986 97.5737C90.7158 95.7178 92.7982 94.4621 95.2589 93.8404C97.1891 93.3528 99.1273 92.8922 101.068 92.373C97.4527 96.273 93.6709 99.87 87.8486 100.191C86.9026 102.565 86.0332 105.053 85.237 107.564C83.1884 114.02 81.605 120.592 80.4113 127.258C80.0689 129.17 79.8786 131.078 80.177 133.017C80.2547 133.51 80.3392 134.028 80.1804 134.495Z" fill="#65AF4C"/>
<path d="M77.0235 134.781C76.8197 134.935 76.6451 135.058 76.3647 134.972C74.4175 123.23 72.0987 111.564 67.9228 100.359C65.2741 100.419 62.828 99.4238 60.6229 98.0285C58.3188 96.57 56.0799 94.8684 54.251 92.8367C54.4785 92.6689 55.6745 93.3818 55.9921 93.5068C56.6565 93.7681 57.3367 93.9877 58.0248 94.1792C59.3233 94.5407 60.6578 94.7175 61.9608 95.0508C64.4238 95.6815 65.9453 97.1343 67.7494 98.7931C67.032 96.2187 66.7595 93.785 67.4003 91.161C68.0343 88.5651 69.1324 86.0965 69.8407 83.5176C71.3881 88.0719 72.0908 95.6837 69.0738 99.6254C73.2823 110.963 75.8072 122.696 77.0235 134.781Z" fill="#65AF4C"/>
<path d="M86.9215 63.166C86.6771 64.9668 86.6185 66.9173 86.0386 68.6494C85.4935 70.2767 84.3977 71.4378 83.1566 72.5719C81.9212 73.7015 80.634 74.7015 79.6722 76.0923C78.7386 77.4426 78.0967 78.9697 77.6338 80.5385C76.9503 77.2568 73.6809 76.0541 71.6426 73.7713C70.5997 72.6046 69.7798 71.2576 69.1278 69.8375C68.4701 68.4061 67.6784 66.6628 67.5669 65.0805C70.3283 68.6742 76.6957 70.1348 77.3613 75.1768C78.0697 72.5212 78.6395 69.9805 80.4133 67.7901C82.1408 65.6571 84.6759 64.6391 86.9215 63.166Z" fill="#65AF4C"/>
<path d="M78.3477 53.2111C78.0673 51.4227 77.8972 48.908 76.637 47.4991C76.0345 46.8268 75.2023 46.3605 74.5255 45.7648C73.8115 45.1364 73.1504 44.4438 72.5952 43.6701C71.4059 42.0135 70.8023 40.0472 70.7696 38.0121C70.7347 35.8972 71.1401 33.2202 72.3012 31.4082C72.6447 33.0626 72.8643 34.8262 73.4117 36.4265C73.9534 38.0099 75.0075 39.2273 75.8386 40.6519C76.6573 42.054 77.2914 43.5541 77.797 45.0947C78.2452 46.4608 78.3883 48.0577 78.9694 49.3596C79.6045 46.4878 80.3253 43.8796 82.0585 41.447C83.6352 39.2352 85.5294 37.3364 85.9821 34.5367C86.5587 37.9288 86.3515 41.5472 84.9325 44.7152C83.4065 48.1219 80.1429 49.9947 78.3477 53.2111Z" fill="#65AF4C"/>
<path d="M69.7766 43.0508C71.7789 45.2367 74.2475 47.0645 75.8962 49.5556C77.4155 51.8508 77.9448 54.3982 78.3356 57.0751C78.8153 55.6787 79.2343 54.2856 80.0248 53.0231C80.8053 51.7776 81.8312 50.9172 82.9439 49.9892C84.0532 49.0635 85.0003 47.9621 85.8044 46.7649C86.1749 46.2131 86.515 45.641 86.8349 45.0576C87.0286 44.704 87.4013 43.4911 87.809 43.3909C87.8383 46.5566 87.4745 49.8664 85.7504 52.6008C84.8359 54.0513 83.6129 55.1336 82.2367 56.1336C80.7174 57.2384 78.7725 58.5223 77.929 60.2622C77.67 59.9739 77.7308 59.6012 77.6655 59.2498C77.5889 58.8365 77.4234 58.4187 77.2533 58.0358C76.9571 57.3691 76.5573 56.7542 76.0978 56.19C74.9255 54.7529 73.3758 53.6774 72.1483 52.2934C69.9714 49.8394 69.4196 46.2277 69.7766 43.0508Z" fill="#65AF4C"/>
<path d="M51.2281 68.1843C51.4905 67.7846 50.8643 66.744 50.736 66.3149C50.558 65.7225 50.4094 65.1223 50.2889 64.5152C50.0141 63.1267 49.8981 61.7099 49.9375 60.2954C50.0163 57.4642 50.8058 54.6915 49.7111 51.9414C52.0085 54.4843 53.5717 58.0577 54.0402 61.4351C54.5458 65.0783 52.9241 68.4828 53.0717 72.126C51.8565 70.3658 50.1312 68.1539 47.9498 67.628C45.9868 67.1561 44.1669 66.9422 42.4045 65.8486C40.8796 64.9026 39.6431 63.5726 38.7252 62.0376C38.2241 61.1998 37.8164 60.3078 37.4819 59.3922C37.1215 58.4046 36.6147 57.1692 36.6147 56.115C37.1215 56.1083 37.9211 57.418 38.2241 57.7717C38.7117 58.3404 39.205 58.8956 39.7681 59.3934C40.9765 60.4621 42.3639 61.0421 43.775 61.7809C46.7222 63.3237 49.0838 65.6865 51.2281 68.1843Z" fill="#65AF4C"/>
<path d="M50.1616 86.778C54.1202 88.7736 60.3772 87.2859 63.2681 91.2568C62.7783 88.7139 62.0372 86.3849 62.3717 83.7519C62.7005 81.1718 64.1646 79.1075 65.3685 76.8721C66.8652 79.6785 68.1963 82.7462 67.2796 85.966C66.8269 87.5573 66.1084 89.0258 65.8223 90.6723C65.5183 92.4224 65.7615 94.052 65.9485 95.7942C64.0587 93.213 60.5608 93.5858 57.8568 92.5373C54.9524 91.4133 52.0356 89.2736 50.1616 86.778Z" fill="#65AF4C"/>
<path d="M79.5922 24C81.5698 27.0429 83.2084 30.8145 82.7985 34.5219C82.5856 36.4421 81.7624 38.0897 80.9538 39.8116C80.5349 40.7047 80.1351 41.6068 79.7724 42.5246C79.4537 43.3321 79.2533 44.2285 78.8208 44.9797C78.7161 43.171 77.8726 41.5673 76.948 40.0515C75.859 38.2665 74.9828 36.7045 75.0053 34.5433C75.0459 30.6006 77.296 27.0407 79.5922 24Z" fill="#65AF4C"/>
<path d="M55.0965 75.3836C54.7936 73.9387 54.3735 72.5377 54.3735 71.0478C54.3746 69.5691 54.8611 68.3641 55.3037 66.9834C56.1563 64.3234 55.9671 61.5451 55.6855 58.8096C57.502 61.5113 58.9627 64.8211 58.8704 68.1287C58.8219 69.845 58.3377 71.4059 57.6879 72.9792C57.0088 74.6234 56.5155 76.333 56.1078 78.0639C53.7778 75.0976 50.0647 75.1606 46.9013 73.6831C44.0701 72.3609 42.2062 69.9824 41.0068 67.149C43.9349 68.0882 47.1096 68.7988 49.8046 70.3169C50.9195 70.9442 51.9184 71.7505 52.8036 72.6729C53.2462 73.1335 53.6584 73.6223 54.0492 74.129C54.3217 74.477 54.6584 75.2057 55.0965 75.3836Z" fill="#65AF4C"/>
<path d="M91.4027 91.2003C92.8431 89.3421 94.5999 87.7373 96.7915 86.8183C99.1373 85.8352 101.636 86.3419 104.02 85.6302C102.506 88.0571 100.822 90.6147 97.9999 91.6226C96.4683 92.1688 94.8252 92.1846 93.3037 92.8062C91.7135 93.4549 90.3936 94.5225 89.3497 95.8773C90.1729 92.7319 87.835 90.1755 87.1074 87.2632C86.3563 84.2529 86.6761 81.2809 87.2538 78.2773C88.1649 80.4802 89.2235 82.5996 90.2517 84.7506C90.7338 85.7586 91.2349 86.7733 91.4973 87.8657C91.7867 89.0538 91.5987 90.0257 91.4027 91.2003Z" fill="#65AF4C"/>
<path d="M38.9932 46.3369C41.8774 47.9496 44.8111 49.8067 46.5792 52.6863C47.5376 54.2472 48.0399 55.9376 48.148 57.762C48.2741 59.8759 48.5556 61.9683 48.8135 64.0709C47.3281 62.5866 45.9283 61.6035 44.0734 60.6372C42.6646 59.9029 41.4843 58.8083 40.6588 57.4501C38.6103 54.076 38.9392 50.113 38.9932 46.3369Z" fill="#65AF4C"/>
<path d="M105.35 67.1425C107.479 65.1277 109.474 63.1592 112.172 61.9125C114.551 60.8122 117.242 60.293 118.957 58.1364C118.808 59.5824 117.386 61.3134 116.513 62.4249C115.509 63.7054 114.314 64.8383 112.944 65.7224C111.549 66.6233 110.018 67.2157 108.409 67.6087C106.43 68.093 104.632 68.8464 102.99 70.0706C103.35 69.0829 103.723 68.0986 104.071 67.1064C104.449 66.0264 104.22 65.4363 103.718 64.4419C102.918 62.854 102.444 61.0859 102.625 59.3009C102.968 55.9133 105.543 52.8039 108.303 50.9941C107.82 52.3298 107.234 53.67 106.922 55.0585C106.608 56.4573 106.814 57.7242 106.897 59.1286C107.06 61.9136 106.292 64.5534 105.35 67.1425Z" fill="#65AF4C"/>
<path d="M68.7516 51.3721C69.7821 52.6368 70.7326 54.0546 72.1302 54.9454C73.2946 55.6865 74.5593 56.1696 75.5639 57.1483C76.3984 57.9614 77.0065 58.9693 77.3782 60.0707C77.5786 60.6631 77.7115 61.2769 77.796 61.8963C77.8816 62.5235 77.7678 63.2848 77.9807 63.875C79.1204 61.8129 80.1779 59.734 81.9708 58.1483C83.7344 56.5897 85.8279 55.5063 87.5521 53.8654C87.6355 55.2912 87.1062 57.03 86.6208 58.3645C86.1489 59.6642 85.4642 60.8804 84.5722 61.9379C83.7096 62.9616 82.669 63.8186 81.5259 64.5112C80.9167 64.8806 80.2792 65.2027 79.6249 65.4843C78.9042 65.794 78.1226 65.9742 77.6068 66.5992C77.8478 65.143 76.8669 64.179 75.9626 63.2015C74.842 61.9909 73.4568 61.1158 72.2957 59.9592C70.0006 57.6742 69.228 54.5265 68.6255 51.4532C68.6672 51.4273 68.7088 51.4002 68.7516 51.3721Z" fill="#65AF4C"/>
<path d="M100.351 59.9941C102.094 64.3311 103.462 68.6275 101.143 73.166C101.207 73.1795 101.271 73.193 101.334 73.2065C103.236 71.1524 105.196 69.5081 108.023 68.9687C111.003 68.4 113.538 67.1026 116.124 65.562C116.545 66.1059 113.871 68.8899 113.443 69.3234C112.299 70.4834 110.976 71.4643 109.506 72.1738C106.222 73.7584 102.105 73.0759 99.3984 75.8091C100.067 72.9666 98.3274 70.3415 97.7891 67.6398C97.2395 64.8761 98.7204 62.1249 100.351 59.9941Z" fill="#65AF4C"/>
<path d="M61.1059 68.627C64.0204 74.1903 62.9596 79.3212 59.438 84.1964C59.0675 83.8271 58.9357 83.0826 58.7645 82.6051C57.4886 81.8675 56.0797 81.4136 54.6472 81.0949C53.2395 80.7819 51.7698 80.6827 50.4229 80.1388C47.8023 79.0802 45.9981 76.8627 44.1782 74.8052C44.4485 74.4854 45.6794 75.3052 45.979 75.4235C46.6254 75.6814 47.2887 75.8875 47.9667 76.044C49.3823 76.3695 50.7945 76.2636 52.2113 76.4821C55.0065 76.9134 56.6271 79.1455 58.3535 81.1332C58.1271 79.0194 57.9323 76.8999 58.5528 74.8288C58.8693 73.7714 59.4436 72.8513 59.9099 71.8602C60.3986 70.8196 60.7917 69.734 61.1059 68.627Z" fill="#65AF4C"/>
<path d="M35 94.8928C35.3266 94.7284 35.5777 94.8354 35.839 94.8996C42.6626 96.5663 48.6426 99.8537 54.0122 104.327C60.2997 109.564 64.9182 116.1 68.7607 123.239C70.254 126.014 71.6314 128.846 72.7947 131.779C72.8803 131.995 72.9535 132.217 72.9794 132.458C72.2023 130.916 71.4286 129.381 70.6099 127.867C64.1434 115.907 54.9785 106.585 43.2324 99.7715C40.7616 98.3378 38.2468 96.9853 35.7163 95.6609C35.4156 95.5032 35.018 95.3962 35 94.8928Z" fill="#65AF4C"/>
<path d="M118.442 47.7041C118.513 52.4149 117.469 56.5176 113.514 59.3747C111.658 60.716 109.626 61.8073 107.872 63.3637C108.568 61.3962 108.139 59.386 108.279 57.4107C108.415 55.495 109.3 53.9116 110.572 52.5287C112.694 50.2177 115.411 48.8641 118.442 47.7041Z" fill="#65AF4C"/>
<path d="M91.164 71.6729C91.369 72.7089 91.5402 73.7597 91.797 74.7845C92.0684 75.8656 92.6529 76.6517 93.2126 77.5921C94.3005 79.4154 94.9604 81.4504 94.8095 83.5913C96.7443 82.2376 98.6216 80.9076 100.916 80.2341C101.988 79.9199 103.096 79.7408 104.212 79.6935C105.531 79.6383 106.776 79.3602 108.082 79.2048C104.892 83.9111 100.131 85.7242 94.76 84.3965C94.4435 85.6465 93.8545 86.7885 93.1878 87.9822C92.0672 85.3909 90.5998 82.7489 90.0953 79.9492C89.5987 77.1844 90.2023 74.2721 91.164 71.6729Z" fill="#65AF4C"/>
<path d="M112.655 72.3899C110.956 75.0522 108.587 77.264 105.512 78.183C103.752 78.7089 101.877 78.7641 100.075 79.0918C99.2452 79.2427 97.9805 79.2619 97.3735 79.906C96.8115 80.5018 96.4241 81.4579 96.0052 82.1618C95.8442 80.8453 95.7225 79.5355 95.3295 78.2618C94.9117 76.9048 94.1819 75.6907 93.8959 74.2875C93.3553 71.6275 93.9127 68.4111 95.4421 66.1475C95.6662 67.2534 95.8104 68.4212 96.1651 69.4934C96.5176 70.5576 97.2913 71.373 97.7429 72.3899C98.6619 74.4587 98.3578 76.4701 97.8409 78.5873C98.3814 78.3373 98.8556 77.6458 99.3196 77.2528C99.8308 76.8203 100.377 76.4284 100.954 76.0883C102.058 75.4373 103.268 74.9801 104.519 74.7042C105.912 74.3956 107.332 74.3506 108.71 73.9508C110.077 73.5544 111.352 72.9485 112.655 72.3899Z" fill="#65AF4C"/>
<path d="M123.979 100.631C116.958 101.179 110.089 103.099 104.16 106.974C98.4492 110.706 93.8679 116.004 90.0558 121.608C87.8012 124.922 85.908 128.42 84.1399 132.011C83.739 131.633 85.7346 128.121 86.0026 127.567C86.8 125.919 87.648 124.294 88.5501 122.699C90.379 119.468 92.4365 116.364 94.743 113.454C99.0945 107.963 104.294 103.093 111.177 101.112C113.332 100.492 115.564 100.154 117.804 100.086C119.811 100.025 122.053 100.012 123.979 100.631Z" fill="#65AF4C"/>
<path d="M77.6036 71.6368C75.3648 69.4881 72.5403 67.9092 70.6359 65.4226C68.9253 63.1893 68.1392 60.455 67.415 57.7803C68.4027 58.8513 69.2901 59.8986 70.503 60.7376C71.7767 61.6183 73.1608 62.2523 74.3231 63.2997C76.6565 65.4023 78.1217 68.4655 77.6036 71.6368Z" fill="#65AF4C"/>
<path d="M46.4624 80.6055C47.9039 81.1663 49.3781 81.8871 50.939 82.0042C52.5787 82.1269 54.0484 82.0785 55.6476 82.5752C58.5475 83.4772 60.5701 85.1766 61.6265 88.0405C58.8313 87.2702 55.8536 87.1035 53.1778 85.9233C50.5786 84.7768 48.3274 82.7103 46.4624 80.6055Z" fill="#65AF4C"/>
</g>
<defs>
<clipPath id="clip0_42_2740">
<rect width="88.9786" height="111" fill="white" transform="translate(35 24)"/>
</clipPath>
</defs>
</svg>
