<svg width="160" height="160" viewBox="0 0 160 160" fill="none" xmlns="http://www.w3.org/2000/svg">
<circle cx="80" cy="80" r="80" fill="white"/>
<path d="M55.5932 62.7609C55.4685 62.6252 54.9696 62.0827 54.2213 61.6758C53.0988 61.1333 51.228 60.9977 49.8561 62.2183C48.3595 63.439 48.3595 65.4735 48.3595 65.7448C48.3595 67.9149 49.7314 69.5425 50.4797 70.3563C53.7224 74.0183 56.9651 77.6804 60.2078 81.3425C60.7067 82.5632 60.582 83.9195 59.8337 84.5976C59.2101 85.1402 58.2123 85.4114 57.5887 84.8689C57.464 84.7333 57.3393 84.5976 57.2146 84.462C52.8494 79.5793 48.4842 74.5609 44.1191 69.6781C41.5 66.6942 40.6269 63.8459 40.3775 63.3034C38.5067 59.3701 37.509 55.8436 37.3842 55.3011C36.5112 52.0459 35.3887 48.9264 34.391 45.8069C34.391 45.4 34.0168 44.7218 33.3932 44.0437C32.0213 42.6873 29.9011 42.5517 28.2797 43.908C28.155 43.908 28.0303 44.0437 28.0303 44.0437C27.1573 44.8574 26.7831 46.0781 26.5337 47.1632C26.2842 48.5195 27.282 50.9609 27.6561 52.3172C29.1528 57.3356 30.6494 62.2184 32.0213 67.2367L35.0146 75.6459C35.6382 77.4091 36.6359 79.0367 37.7584 80.3931L50.1056 94.4988C50.9786 95.4482 52.6 97.3471 53.3483 100.738C53.8471 102.772 53.7224 104.671 53.5977 105.892C59.2101 110.91 64.8224 116.336 70.4348 121.625C73.9269 110.096 78.4168 90.5655 72.3056 80.7999C72.0561 80.3931 71.682 79.5793 71.0584 78.9011C66.0696 72.7977 60.8314 68.7287 55.5932 62.7609Z" fill="#006C3C"/>
<path d="M67.8159 125.694L51.8519 110.367L49.6069 112.944L64.1991 129.627L67.8159 125.694Z" fill="#006C3C"/>
<path d="M108.1 70.3562C108.848 69.5424 110.22 67.9148 110.22 65.7447C110.22 65.4734 110.22 63.4389 108.724 62.2182C107.352 60.9975 105.481 61.1332 104.234 61.6757C103.485 62.0826 102.986 62.6251 102.862 62.7608C97.6236 68.7286 92.3854 72.7975 87.1472 78.901C86.5236 79.5791 86.1494 80.3929 85.9 80.7998C79.7888 90.701 84.2786 110.096 87.7708 121.625C93.3831 116.335 98.9955 111.046 104.608 105.892C104.483 104.671 104.358 102.772 104.857 100.738C105.606 97.4826 107.227 95.4481 108.1 94.4987L120.447 80.3929C121.694 79.0366 122.567 77.409 123.191 75.6458L126.184 67.2366C127.556 62.2182 129.177 57.3355 130.549 52.3171C130.924 50.9608 131.921 48.655 131.672 47.1631C131.422 46.078 130.924 44.8573 130.175 44.0435C130.175 43.9079 130.051 43.9079 129.926 43.7723C128.18 42.416 126.06 42.5516 124.812 43.9079C124.189 44.5861 123.939 45.2642 123.815 45.6711C122.817 48.7907 121.694 51.9102 120.821 55.1654C120.697 55.7079 119.699 59.2343 117.828 63.1677C117.579 63.8458 116.706 66.5585 114.086 69.5424C109.721 74.4251 105.356 79.4435 100.991 84.3263C100.866 84.4619 100.866 84.5975 100.617 84.7332C99.9932 85.2757 98.8708 85.0044 98.3719 84.4619C97.6236 83.7837 97.4989 82.4274 97.9977 81.2067C101.615 77.6803 104.857 74.0182 108.1 70.3562Z" fill="#006C3C"/>
<path d="M106.728 110.367L90.7642 125.694L94.381 129.627L108.973 112.944L106.728 110.367Z" fill="#006C3C"/>
<path d="M87.2718 28.9883C84.2786 28.9883 81.2853 31.0228 78.9156 33.4641C76.546 31.0228 73.5527 28.9883 70.5595 28.9883C69.8111 28.9883 65.446 29.1239 62.328 32.786C58.2123 37.5331 59.3347 44.3147 59.4594 45.5354C61.5797 58.9629 77.6684 68.1859 79.0404 69.4066C80.9111 68.3215 97.8729 58.4204 98.6213 44.0434C98.746 41.6021 98.9954 36.5837 95.7527 32.786C92.51 29.1239 88.0201 28.9883 87.2718 28.9883ZM87.7707 50.5538H81.0359V57.8779H77.7932V50.5538H71.0583V47.0273H77.7932V39.7032H81.0359V47.0273H87.7707V50.5538Z" fill="#006C3C"/>
</svg>
