<svg width="18" height="16" viewBox="0 0 18 16" fill="none" xmlns="http://www.w3.org/2000/svg">
<path d="M7.99984 16C7.7165 16 7.479 15.9042 7.28734 15.7125C7.09567 15.5208 6.99984 15.2833 6.99984 15V9L1.19984 1.6C0.949836 1.26667 0.912336 0.916667 1.08734 0.55C1.26234 0.183333 1.5665 0 1.99984 0H15.9998C16.4332 0 16.7373 0.183333 16.9123 0.55C17.0873 0.916667 17.0498 1.26667 16.7998 1.6L10.9998 9V15C10.9998 15.2833 10.904 15.5208 10.7123 15.7125C10.5207 15.9042 10.2832 16 9.99984 16H7.99984ZM8.99984 8.3L13.9498 2H4.04984L8.99984 8.3Z" fill="#8C8C8C"/>
</svg>
