<svg width="16" height="14" viewBox="0 0 16 14" fill="none" xmlns="http://www.w3.org/2000/svg">
<path fill-rule="evenodd" clip-rule="evenodd" d="M11.7038 2.18535C11.7038 3.2085 12.5325 4.0372 13.5556 4.0372C14.5788 4.0372 15.4075 3.2085 15.4075 2.18535C15.4075 1.1622 14.5788 0.333496 13.5556 0.333496C12.5325 0.333496 11.7038 1.1622 11.7038 2.18535ZM0.592655 2.18535C0.592655 1.67424 1.00747 1.25942 1.51858 1.25942H9.85191C10.363 1.25942 10.7778 1.67424 10.7778 2.18535C10.7778 2.69646 10.363 3.11127 9.85191 3.11127H1.51858C1.00747 3.11127 0.592655 2.69646 0.592655 2.18535ZM1.51858 5.88905C1.00747 5.88905 0.592655 6.30387 0.592655 6.81498C0.592655 7.32609 1.00747 7.7409 1.51858 7.7409H9.85191C10.363 7.7409 10.7778 7.32609 10.7778 6.81498C10.7778 6.30387 10.363 5.88905 9.85191 5.88905H1.51858ZM1.51858 10.5187C1.00747 10.5187 0.592655 10.9335 0.592655 11.4446C0.592655 11.9557 1.00747 12.3705 1.51858 12.3705H9.85191C10.363 12.3705 10.7778 11.9557 10.7778 11.4446C10.7778 10.9335 10.363 10.5187 9.85191 10.5187H1.51858ZM11.7038 11.4446C11.7038 12.4678 12.5325 13.2965 13.5556 13.2965C14.5788 13.2965 15.4075 12.4678 15.4075 11.4446C15.4075 10.4215 14.5788 9.59276 13.5556 9.59276C12.5325 9.59276 11.7038 10.4215 11.7038 11.4446ZM13.5556 8.66683C12.5325 8.66683 11.7038 7.83813 11.7038 6.81498C11.7038 5.79183 12.5325 4.96313 13.5556 4.96313C14.5788 4.96313 15.4075 5.79183 15.4075 6.81498C15.4075 7.83813 14.5788 8.66683 13.5556 8.66683Z" fill="#65AF4C"/>
</svg>
