<svg width="121" height="120" viewBox="0 0 121 120" fill="none" xmlns="http://www.w3.org/2000/svg">
<g clip-path="url(#clip0_193_34285)">
<path d="M60.5 120C93.6406 120 120.5 93.1406 120.5 60C120.5 26.8594 93.6406 0 60.5 0C27.3594 0 0.5 26.8594 0.5 60C0.5 93.1406 27.3594 120 60.5 120ZM86.9844 48.9844L56.9844 78.9844C54.7812 81.1875 51.2188 81.1875 49.0391 78.9844L34.0391 63.9844C31.8359 61.7812 31.8359 58.2188 34.0391 56.0391C36.2422 53.8594 39.8047 53.8359 41.9844 56.0391L53 67.0547L79.0156 41.0156C81.2188 38.8125 84.7812 38.8125 86.9609 41.0156C89.1406 43.2188 89.1641 46.7812 86.9609 48.9609L86.9844 48.9844Z" fill="#65AF4C"/>
</g>
<defs>
<clipPath id="clip0_193_34285">
<rect width="120" height="120" fill="white" transform="translate(0.5)"/>
</clipPath>
</defs>
</svg>
