<svg width="150" height="120" viewBox="0 0 150 120" fill="none" xmlns="http://www.w3.org/2000/svg">
<g clip-path="url(#clip0_193_32845)">
<path d="M11.3312 15C5.12822 15 0.0955811 20.0391 0.0955811 26.25C0.0955811 29.7891 1.75752 33.1172 4.58985 35.25L55.5249 73.5C58.1934 75.4922 61.8449 75.4922 64.5134 73.5L77.9494 63.4219C83.5438 49.4062 96.6053 39.2109 112.195 37.6875L115.448 35.25C118.281 33.1172 119.943 29.7891 119.943 26.25C119.943 20.0391 114.91 15 108.707 15H11.3312ZM69.0077 79.5C63.6707 83.5078 56.3676 83.5078 51.0306 79.5L0.0955811 41.25V90C0.0955811 98.2734 6.81357 105 15.0765 105H84.4099C78.5346 97.875 75 88.7109 75 78.75C75 77.4375 75.0703 76.1484 75.1873 74.8594L69.0077 79.5ZM149.904 78.75C149.904 60.1172 134.807 45 116.197 45C97.5884 45 82.4905 60.1172 82.4905 78.75C82.4905 97.3828 97.5884 112.5 116.197 112.5C134.807 112.5 149.904 97.3828 149.904 78.75ZM131.951 68.6016C133.402 70.0547 133.402 72.4453 131.951 73.8984L115.097 90.7734C113.646 92.2266 111.258 92.2266 109.807 90.7734L100.444 81.3984C98.9929 79.9453 98.9929 77.5547 100.444 76.1016C101.895 74.6484 104.283 74.6484 105.734 76.1016L112.452 82.8281L126.661 68.6016C128.112 67.1484 130.5 67.1484 131.951 68.6016Z" fill="#65AF4C"/>
</g>
<defs>
<clipPath id="clip0_193_32845">
<rect width="149.809" height="120" fill="white" transform="translate(0.0955811)"/>
</clipPath>
</defs>
</svg>
