<svg width="40" height="40" viewBox="0 0 40 40" fill="none" xmlns="http://www.w3.org/2000/svg">
<rect width="40" height="40" rx="4" fill="white"/>
<path d="M19.0574 35C18.4984 34.9233 17.9377 34.8592 17.381 34.7692C11.5083 33.8146 6.55803 29.0662 5.33651 23.2224C3.89497 16.3215 7.16488 9.5192 13.4847 6.50222C22.419 2.23651 32.6139 7.48571 34.6584 16.8191C34.8025 17.4771 34.9027 18.1414 34.9505 18.8142C34.9568 18.9003 34.9834 18.9848 35.0006 19.0701C35.0006 19.6945 35.0006 20.3196 35.0006 20.944C34.9842 21.0191 34.9575 21.0942 34.9521 21.1701C34.9066 21.8719 34.7923 22.5636 34.649 23.2521C33.4385 29.0599 28.4655 33.8201 22.61 34.7684C22.0533 34.8584 21.4927 34.9233 20.9336 34.9992C20.3079 35 19.6823 35 19.0574 35ZM20.0033 33.8287C27.641 33.8209 33.8214 27.6438 33.8268 20.0129C33.8323 12.3758 27.6284 6.17752 19.9861 6.18534C12.3493 6.19395 6.16809 12.3711 6.1626 20.0012C6.15712 27.6359 12.3642 33.8366 20.0033 33.8287Z" fill="#65AF4C"/>
<path d="M10.8271 26.5161C12.0376 25.3065 13.2231 24.1172 14.4149 22.9358C14.53 22.8215 14.5042 22.7128 14.4799 22.5899C14.3695 22.0383 14.3617 21.4844 14.4595 20.9312C14.5566 20.3859 14.6584 20.2896 15.2026 20.1879C15.2496 20.1793 15.2974 20.1723 15.3444 20.1645C15.3631 20.0416 15.2676 19.9837 15.2159 19.907C14.4838 18.8273 14.2411 17.6474 14.4846 16.3674C14.5511 16.0161 14.707 15.8604 15.0578 15.7955C15.8189 15.6546 16.5729 15.6805 17.3168 15.9058C17.3982 15.93 17.4742 15.9872 17.594 15.9496C17.5321 15.4536 17.5031 14.9505 17.5854 14.4466C17.807 13.0907 18.4945 12.0383 19.6338 11.2755C19.882 11.1088 20.1263 11.1198 20.3706 11.2849C21.4974 12.0462 22.1794 13.093 22.3986 14.4372C22.4174 14.553 22.4307 14.6688 22.4495 14.7846C22.4519 14.8002 22.4683 14.8135 22.4808 14.8315C22.5818 14.8042 22.6335 14.715 22.7001 14.6485C23.9106 13.442 25.1149 12.2308 26.3317 11.0306C26.5009 10.8632 26.4805 10.8006 26.2918 10.6824C22.3603 8.21704 18.3598 8.09185 14.2849 10.3139C14.1823 10.3702 14.086 10.4391 13.9827 10.4931C13.6655 10.6589 13.3343 10.5713 13.1699 10.2834C13.0109 10.0041 13.0885 9.68562 13.3829 9.49471C13.9239 9.14341 14.4901 8.83358 15.0891 8.59572C19.55 6.82825 23.7235 7.35091 27.5971 10.1911C28.1131 10.569 28.1241 10.889 27.6699 11.3436C26.2965 12.7175 24.9215 14.0906 23.5473 15.4645C23.4745 15.5373 23.4056 15.6147 23.292 15.7368C23.9333 15.711 24.5143 15.6805 25.0836 15.8307C25.2089 15.8635 25.2637 15.7313 25.3357 15.6593C26.4429 14.5577 27.547 13.4522 28.6526 12.3482C29.1248 11.8772 29.4263 11.8944 29.8256 12.4178C31.661 14.8222 32.5169 17.5403 32.408 20.5565C32.1989 26.3643 27.7569 31.3569 22.0008 32.2504C18.4514 32.8012 15.2433 31.9742 12.3783 29.8124C11.8818 29.4376 11.8654 29.1215 12.307 28.6794C13.4393 27.5473 14.5699 26.4136 15.7077 25.2869C15.8439 25.1516 15.8854 25.0694 15.7202 24.9223C15.501 24.7283 15.3052 24.5014 15.1682 24.2432C15.0335 23.9905 14.9411 24.0515 14.7767 24.2174C13.6225 25.3831 12.4597 26.5396 11.2992 27.6991C11.1818 27.8164 11.069 27.9393 10.8944 27.9737C10.5977 28.0316 10.3949 27.8986 10.2179 27.6709C8.82646 25.8839 7.96435 23.8731 7.67463 21.626C7.29878 18.7131 7.89153 16.0036 9.41138 13.4928C9.56485 13.2386 9.76139 13.0656 10.0769 13.122C10.51 13.2002 10.6869 13.6454 10.4387 14.0554C10.0284 14.733 9.66195 15.4332 9.40746 16.1828C8.18986 19.7717 8.61504 23.1548 10.6885 26.3283C10.7261 26.3854 10.7691 26.4378 10.8271 26.5161ZM24.5903 20.1621C25.0539 20.2192 25.4187 20.2998 25.5135 20.8154C26.0569 23.7596 23.812 26.3823 20.8012 26.2907C20.6039 26.2845 20.5765 26.3479 20.5789 26.5161C20.5867 27.0724 20.5844 27.6287 20.5804 28.185C20.5781 28.5957 20.3557 28.8484 20.0033 28.8524C19.6377 28.8571 19.4122 28.602 19.4098 28.1724C19.4067 27.6162 19.4051 27.0599 19.4114 26.5036C19.4129 26.3518 19.3926 26.279 19.2062 26.29C18.4514 26.3353 17.7279 26.1945 17.0482 25.862C16.8861 25.7822 16.8047 25.8416 16.7005 25.9465C15.7633 26.8877 14.8244 27.8266 13.8824 28.7624C13.7517 28.8923 13.6021 29.0049 13.444 29.1403C13.5755 29.235 13.6522 29.2936 13.7321 29.3468C15.252 30.3648 16.9229 30.9923 18.7403 31.1761C22.0157 31.5079 24.9207 30.6042 27.4178 28.4494C31.6641 24.7854 32.4934 18.3258 29.3245 13.7119C29.1968 13.5265 29.1389 13.5093 28.9752 13.6751C27.9683 14.6978 26.9527 15.7125 25.9301 16.7195C25.7116 16.9347 25.5479 17.1389 25.584 17.4722C25.6043 17.6615 25.5581 17.8603 25.5276 18.0527C25.407 18.8195 25.0852 19.501 24.5903 20.1621ZM18.702 15.1163C18.7184 16.1108 19.077 16.9534 19.7927 17.649C19.947 17.7992 20.0433 17.7914 20.1991 17.6474C21.6438 16.3205 21.6383 13.9435 20.1874 12.6158C20.0378 12.4788 19.9454 12.4812 19.8029 12.6181C19.0903 13.3019 18.7294 14.1344 18.702 15.1163ZM18.868 25.1273C19.3989 25.1547 19.4208 25.1328 19.4028 24.596C19.3409 22.7965 17.8234 21.3146 16.0264 21.2982C15.5519 21.2943 15.544 21.3029 15.5644 21.7911C15.6396 23.6266 17.031 25.0318 18.868 25.1273ZM21.1223 25.1273C22.9687 25.0311 24.3742 23.5977 24.4259 21.7598C24.4384 21.3021 24.4329 21.2958 23.9913 21.2974C22.1762 21.3044 20.6478 22.7848 20.5867 24.596C20.5687 25.1328 20.5914 25.1547 21.1223 25.1273ZM16.0827 16.8838C15.5526 16.8995 15.5401 16.7931 15.5699 17.4025C15.6646 19.3265 17.2087 20.7552 19.1052 20.7137C19.3401 20.7082 19.3996 20.6269 19.4059 20.4078C19.4646 18.5363 17.9722 16.9495 16.0827 16.8838ZM23.9099 16.8838C22.0329 16.9464 20.5499 18.5081 20.582 20.3757C20.5859 20.619 20.6454 20.7122 20.9109 20.7153C22.7995 20.738 24.3233 19.3179 24.4188 17.4049C24.4486 16.7891 24.4353 16.901 23.9099 16.8838Z" fill="#65AF4C"/>
<path d="M11.6098 12.2209C11.295 12.2146 11.0374 11.9548 11.0366 11.6427C11.0358 11.325 11.3201 11.0473 11.6364 11.0559C11.9614 11.0652 12.2159 11.3414 12.2025 11.6693C12.1892 11.9877 11.9316 12.2279 11.6098 12.2209Z" fill="#65AF4C"/>
</svg>
