<svg width="81" height="53" viewBox="0 0 81 53" fill="none" xmlns="http://www.w3.org/2000/svg">
<rect x="1.1123" y="1" width="78.6119" height="51" rx="5.5" fill="white"/>
<rect x="1.1123" y="1" width="78.6119" height="51" rx="5.5" stroke="#D6DCE5"/>
<path d="M45.9932 16.2316H34.566V36.7667H45.9932V16.2316Z" fill="#FF5F00"/>
<path d="M35.2916 26.4992C35.2898 24.5215 35.7379 22.5693 36.6021 20.7904C37.4663 19.0116 38.7239 17.4526 40.2796 16.2316C38.3531 14.7173 36.0393 13.7756 33.6028 13.514C31.1663 13.2525 28.7054 13.6818 26.5014 14.7528C24.2973 15.8238 22.439 17.4933 21.1389 19.5704C19.8388 21.6476 19.1494 24.0487 19.1494 26.4992C19.1494 28.9496 19.8388 31.3507 21.1389 33.4279C22.439 35.505 24.2973 37.1745 26.5014 38.2455C28.7054 39.3165 31.1663 39.7458 33.6028 39.4843C36.0393 39.2228 38.3531 38.281 40.2796 36.7667C38.7239 35.5457 37.4663 33.9867 36.6022 32.2079C35.738 30.429 35.2898 28.4768 35.2916 26.4992Z" fill="#EB001B"/>
<path d="M61.4092 26.4992C61.4093 28.9496 60.7199 31.3506 59.4199 33.4278C58.1199 35.505 56.2617 37.1745 54.0577 38.2455C51.8537 39.3165 49.3928 39.7458 46.9563 39.4843C44.5199 39.2228 42.2062 38.281 40.2796 36.7667C41.834 35.5444 43.0906 33.9853 43.9546 32.2067C44.8187 30.4281 45.2676 28.4765 45.2676 26.4992C45.2676 24.5218 44.8187 22.5702 43.9546 20.7916C43.0906 19.0131 41.834 17.4539 40.2796 16.2316C42.2062 14.7173 44.5199 13.7755 46.9563 13.514C49.3928 13.2525 51.8537 13.6818 54.0577 14.7528C56.2617 15.8238 58.1199 17.4933 59.4199 19.5705C60.7199 21.6477 61.4093 24.0487 61.4092 26.4992Z" fill="#F79E1B"/>
<path d="M60.1632 34.5917V34.1713H60.3328V34.0856H59.901V34.1713H60.0706V34.5917H60.1632ZM61.0014 34.5917V34.0848H60.8691L60.7169 34.4335L60.5646 34.0848H60.4322V34.5917H60.5257V34.2093L60.6684 34.539H60.7653L60.908 34.2085V34.5917H61.0014Z" fill="#F79E1B"/>
</svg>
