<svg width="80" height="53" viewBox="0 0 80 53" fill="none" xmlns="http://www.w3.org/2000/svg">
<rect x="0.5" y="1" width="78.6119" height="51" rx="4.5" fill="white"/>
<rect x="0.5" y="1" width="78.6119" height="51" rx="4.5" stroke="#D6DCE5"/>
<path d="M39.3315 18.3525L35.7115 35.2747H31.3341L34.9547 18.3525H39.3315ZM57.749 29.2792L60.0537 22.9244L61.3798 29.2792H57.749ZM62.6331 35.2747H66.6822L63.1489 18.3525H59.4115C58.5717 18.3525 57.8631 18.841 57.5476 19.5941L50.9802 35.2747H55.5772L56.4898 32.7477H62.1061L62.6331 35.2747ZM51.2084 29.7495C51.2271 25.2831 45.0319 25.0373 45.0747 23.0422C45.0876 22.4343 45.6666 21.7895 46.9311 21.624C47.5593 21.542 49.2866 21.4793 51.248 22.3818L52.016 18.7933C50.9625 18.4109 49.6069 18.043 47.9209 18.043C43.5943 18.043 40.549 20.3434 40.5232 23.6373C40.4959 26.0731 42.6972 27.4325 44.356 28.2423C46.0613 29.0719 46.6344 29.6033 46.6269 30.3451C46.6156 31.481 45.2665 31.9813 44.0078 32.0011C41.8065 32.0359 40.5291 31.4071 39.511 30.9326L38.7178 34.6405C39.7402 35.1102 41.6282 35.5184 43.5868 35.5393C48.1849 35.5393 51.1934 33.2673 51.2084 29.7495ZM33.0763 18.3525L25.984 35.2747H21.3559L17.866 21.7696C17.6539 20.9379 17.4697 20.6336 16.8253 20.2828C15.774 19.7124 14.036 19.1763 12.5068 18.8442L12.6113 18.3525H20.0598C21.0089 18.3525 21.8631 18.9845 22.0784 20.0777L23.922 29.8705L28.4772 18.3525H33.0763Z" fill="#1434CB"/>
</svg>
