<svg width="36" height="36" viewBox="0 0 36 36" fill="none" xmlns="http://www.w3.org/2000/svg">
<circle cx="18" cy="18" r="17.5" transform="matrix(-1 0 0 1 36 0)" fill="white" stroke="#F0F0F0"/>
<g clip-path="url(#clip0_42_4752)">
<path d="M6.50841 17.8564C6.50785 19.8728 7.03474 21.8418 8.0366 23.5772L6.4126 29.5067L12.4807 27.9156C14.159 28.8293 16.0395 29.3081 17.9505 29.3082H17.9555C24.2639 29.3082 29.399 24.1749 29.4017 17.8654C29.4029 14.808 28.2133 11.933 26.052 9.77005C23.8911 7.60726 21.0172 6.41553 17.955 6.41414C11.6459 6.41414 6.51111 11.5472 6.5085 17.8564" fill="url(#paint0_linear_42_4752)"/>
<path d="M6.09953 17.8527C6.09888 19.9417 6.64465 21.981 7.68223 23.7786L6 29.9207L12.2857 28.2726C14.0176 29.2168 15.9675 29.7147 17.9517 29.7154H17.9568C24.4915 29.7154 29.8112 24.3975 29.814 17.8621C29.8151 14.6949 28.5827 11.7166 26.3442 9.47609C24.1054 7.23591 21.1287 6.0013 17.9568 6C11.421 6 6.10214 11.3172 6.09953 17.8527ZM9.84279 23.469L9.60809 23.0965C8.62149 21.5277 8.10074 19.7149 8.10149 17.8534C8.10363 12.4213 12.5245 8.00186 17.9606 8.00186C20.5931 8.00298 23.0672 9.02921 24.928 10.8912C26.7887 12.7533 27.8127 15.2287 27.812 17.8614C27.8096 23.2935 23.3887 27.7135 17.9568 27.7135H17.9529C16.1843 27.7126 14.4497 27.2376 12.9369 26.34L12.5769 26.1265L8.84688 27.1045L9.84279 23.4689V23.469Z" fill="url(#paint1_linear_42_4752)"/>
<path d="M14.9935 12.8975C14.7716 12.4042 14.538 12.3942 14.3269 12.3856C14.1541 12.3781 13.9565 12.3787 13.7591 12.3787C13.5615 12.3787 13.2405 12.453 12.9692 12.7493C12.6975 13.0459 11.9321 13.7625 11.9321 15.2201C11.9321 16.6778 12.9938 18.0864 13.1418 18.2843C13.29 18.4818 15.1914 21.5687 18.2027 22.7562C20.7054 23.7431 21.2147 23.5468 21.7579 23.4973C22.3012 23.448 23.5108 22.7808 23.7576 22.089C24.0046 21.3973 24.0046 20.8044 23.9305 20.6805C23.8565 20.557 23.6589 20.4829 23.3626 20.3348C23.0663 20.1866 21.6097 19.4699 21.3382 19.371C21.0665 19.2722 20.8691 19.2229 20.6715 19.5195C20.4739 19.8157 19.9065 20.4829 19.7336 20.6805C19.5609 20.8785 19.3879 20.9032 19.0918 20.755C18.7953 20.6063 17.8412 20.2939 16.7092 19.2847C15.8284 18.4993 15.2338 17.5296 15.061 17.2329C14.8881 16.9367 15.0425 16.7762 15.191 16.6286C15.3241 16.4958 15.4874 16.2826 15.6357 16.1097C15.7834 15.9367 15.8327 15.8132 15.9315 15.6156C16.0304 15.4179 15.9809 15.2448 15.9069 15.0967C15.8327 14.9485 15.257 13.4833 14.9935 12.8975Z" fill="white"/>
</g>
<defs>
<linearGradient id="paint0_linear_42_4752" x1="1155.87" y1="2315.67" x2="1155.87" y2="6.41414" gradientUnits="userSpaceOnUse">
<stop stop-color="#1FAF38"/>
<stop offset="1" stop-color="#60D669"/>
</linearGradient>
<linearGradient id="paint1_linear_42_4752" x1="1196.7" y1="2398.07" x2="1196.7" y2="6" gradientUnits="userSpaceOnUse">
<stop stop-color="#F9F9F9"/>
<stop offset="1" stop-color="white"/>
</linearGradient>
<clipPath id="clip0_42_4752">
<rect width="23.814" height="24" fill="white" transform="translate(6 6)"/>
</clipPath>
</defs>
</svg>
