<svg width="20" height="12" viewBox="0 0 20 12" fill="none" xmlns="http://www.w3.org/2000/svg">
<path d="M18.4093 0.75C18.3653 0.75 18.3433 0.75 18.2993 0.772581L15.1531 0.885484C14.8231 0.885484 14.5811 1.15645 14.5811 1.49516C14.5811 1.83387 14.8451 2.08226 15.1751 2.08226H15.1971L17.1333 1.99194L13.921 5.96613C13.723 5.89839 13.525 5.85323 13.305 5.85323C12.8429 5.85323 12.4249 6.05645 12.1169 6.35L9.91671 4.74677C9.91671 4.67903 9.93871 4.61129 9.93871 4.56613C9.93871 3.59516 9.14665 2.78226 8.20058 2.78226C7.25451 2.78226 6.46245 3.59516 6.46245 4.56613C6.46245 4.74677 6.50645 4.92742 6.55046 5.08548L3.0962 7.93065C2.83218 7.79516 2.54615 7.70484 2.23813 7.70484C1.27006 7.70484 0.5 8.49516 0.5 9.48871C0.5 10.4823 1.27006 11.2726 2.23813 11.2726C3.1842 11.2726 3.97626 10.4597 3.97626 9.48871C3.97626 9.2629 3.93226 9.05968 3.84425 8.85645L7.25451 6.05645C7.51853 6.2371 7.84855 6.35 8.20058 6.35C8.66261 6.35 9.08065 6.14677 9.38867 5.85323L11.5668 7.45645C11.5668 7.52419 11.5448 7.59194 11.5448 7.65968C11.5448 8.63064 12.3369 9.44355 13.283 9.44355C14.229 9.44355 15.0211 8.63064 15.0211 7.65968C15.0211 7.34355 14.9331 7.02742 14.7791 6.77903L17.8593 2.9629L17.9253 4.74677C17.9473 5.04032 18.2113 5.31129 18.5194 5.33387C18.8494 5.35645 19.1134 5.08548 19.1134 4.76935C19.1134 4.74677 19.1134 4.70161 19.1134 4.67903L19.0034 1.42742C19.0474 1.08871 18.8054 0.795161 18.4974 0.75C18.4534 0.75 18.4314 0.75 18.4093 0.75ZM8.20058 3.97903C8.53061 3.97903 8.77262 4.22742 8.77262 4.56613C8.77262 4.63387 8.75062 4.67903 8.75062 4.72419C8.72862 4.76935 8.70662 4.81452 8.70662 4.8371C8.61861 5.01774 8.4206 5.15323 8.20058 5.15323C8.02457 5.15323 7.89256 5.08548 7.78255 4.97258C7.78255 4.92742 7.76055 4.90484 7.73855 4.88226C7.67254 4.79194 7.62854 4.67903 7.62854 4.56613C7.62854 4.22742 7.89256 3.97903 8.20058 3.97903ZM13.305 7.05C13.459 7.05 13.591 7.11774 13.701 7.20806C13.701 7.20806 13.723 7.20806 13.723 7.23064C13.833 7.34355 13.877 7.47903 13.877 7.6371C13.877 7.97581 13.635 8.22419 13.305 8.22419C12.9749 8.22419 12.7329 7.97581 12.7329 7.6371C12.7329 7.59194 12.7549 7.52419 12.7549 7.47903C12.7989 7.43387 12.7989 7.38871 12.8209 7.34355C12.9089 7.18548 13.0849 7.05 13.305 7.05ZM2.23813 8.90161C2.37014 8.90161 2.48015 8.94677 2.59016 9.0371C2.63416 9.10484 2.67816 9.15 2.72217 9.19516C2.76617 9.28548 2.81017 9.37581 2.81017 9.48871C2.81017 9.82742 2.56816 10.0758 2.23813 10.0758C1.90811 10.0758 1.66609 9.82742 1.66609 9.48871C1.66609 9.15 1.90811 8.90161 2.23813 8.90161Z" fill="white"/>
</svg>
