<svg width="16" height="16" viewBox="0 0 16 16" fill="none" xmlns="http://www.w3.org/2000/svg">
<g clip-path="url(#clip0_146_13326)">
<path d="M6.94732 16C6.66838 15.9597 6.38744 15.9294 6.11049 15.8773C3.12212 15.317 0.822488 13.0625 0.168295 10.0563C-0.663226 6.2361 1.66696 2.30324 5.38324 1.26961C5.77808 1.15969 6.18753 1.1049 6.59034 1.02456C6.62488 1.0175 6.65941 1.00943 6.7245 0.994979C6.48839 0.793294 6.27055 0.607408 6.04241 0.412782C6.15333 0.275972 6.26026 0.144541 6.37781 0C6.59831 0.186222 6.81416 0.368075 7.02935 0.550936C7.21465 0.70825 7.40194 0.863211 7.58358 1.02456C7.71044 1.13717 7.73568 1.27532 7.63672 1.39835C7.30265 1.81348 6.96027 2.22156 6.60993 2.64611C6.47245 2.5298 6.34361 2.42089 6.20447 2.30324C6.40969 2.05282 6.61026 1.80811 6.82313 1.54894C3.52161 1.80542 0.558818 4.62867 0.53823 8.45329C0.518305 12.1609 3.31606 15.1257 6.80752 15.4309C8.81094 15.606 10.5822 15.0074 12.07 13.6342C13.5533 12.2655 14.2766 10.5347 14.3267 8.48589C14.4167 8.48589 14.5018 8.48589 14.5871 8.48589C14.6685 8.48589 14.7501 8.48589 14.8571 8.48589C14.8421 8.74842 14.8401 8.9975 14.8126 9.24322C14.5725 11.3646 13.632 13.0998 11.9746 14.4205C10.8223 15.3388 9.50166 15.8474 8.03853 15.9728C7.99337 15.9765 7.9492 15.9906 7.9047 16C7.58524 16 7.26645 16 6.94732 16Z" fill="white"/>
<path d="M10.3433 11.96C10.7488 12.0601 10.8713 12.2184 10.8716 12.6228C10.8716 12.7583 10.8733 12.8938 10.8713 13.0289C10.866 13.3563 10.6548 13.5758 10.3297 13.5845C10.1138 13.5902 9.89766 13.5859 9.68148 13.5859C7.99452 13.5859 6.30724 13.5859 4.62029 13.5859C4.17729 13.5859 3.9827 13.3879 3.98236 12.9375C3.98236 12.8333 3.98236 12.729 3.98236 12.6252C3.9827 12.2205 4.10391 12.0625 4.51004 11.9593C4.51004 11.7381 4.51867 11.5105 4.50838 11.2843C4.48347 10.7492 4.68736 10.3324 5.09283 9.99118C5.58298 9.57873 6.05519 9.1441 6.53471 8.71854C6.68083 8.58879 6.68116 8.38341 6.53405 8.25265C6.0356 7.80962 5.53914 7.36389 5.03538 6.92725C4.67508 6.61531 4.49775 6.22874 4.50937 5.74907C4.51535 5.50503 4.51037 5.26066 4.51037 5.01964C4.07535 4.88552 3.98236 4.75745 3.9827 4.3003C3.9827 4.17021 3.97971 4.03979 3.98403 3.9097C3.99299 3.64281 4.17431 3.43709 4.43598 3.39709C4.50173 3.387 4.56915 3.38532 4.63589 3.38532C6.49785 3.38465 8.35981 3.38465 10.2218 3.38499C10.68 3.38499 10.8716 3.5776 10.872 4.03609C10.872 4.1245 10.872 4.21324 10.872 4.30164C10.872 4.76081 10.7763 4.89225 10.3436 5.01796C10.3436 5.28015 10.3426 5.54537 10.344 5.81058C10.346 6.24219 10.1872 6.59951 9.86644 6.88388C9.35538 7.33633 8.84464 7.78878 8.33424 8.2419C8.16953 8.38812 8.16853 8.58308 8.33291 8.72896C8.83933 9.17872 9.34541 9.62882 9.85382 10.0762C10.1896 10.3714 10.3519 10.7411 10.3446 11.1909C10.34 11.4457 10.3433 11.7005 10.3433 11.96ZM9.8153 11.9657C9.8153 11.7075 9.80899 11.4682 9.81696 11.2295C9.82759 10.9102 9.71369 10.6581 9.4726 10.4493C8.94925 9.99555 8.43386 9.53234 7.91549 9.0725C7.59072 8.78476 7.58839 8.19416 7.9125 7.90441C8.2479 7.60457 8.58595 7.30776 8.92235 7.00893C8.96153 6.97397 8.99873 6.93666 9.04688 6.89027C7.95667 6.89027 6.89302 6.89027 5.81975 6.89027C5.83569 6.91279 5.84001 6.92288 5.84764 6.9296C6.19931 7.24221 6.55098 7.55482 6.90365 7.86643C7.28222 8.20122 7.28089 8.77502 6.90166 9.10948C6.38561 9.56428 5.8669 10.0157 5.35982 10.4803C5.24625 10.5845 5.11774 10.7277 5.09615 10.8685C5.04103 11.2282 5.04236 11.5966 5.0211 11.9657C6.64164 11.9657 8.21934 11.9657 9.8153 11.9657ZM5.04335 5.00519C5.04335 5.31948 5.03804 5.61562 5.04667 5.91143C5.04933 6.00218 5.08652 6.09294 5.11475 6.18168C5.15161 6.29698 5.22068 6.34572 5.35418 6.34538C6.71237 6.33933 8.07024 6.34169 9.42843 6.34169C9.67749 6.34169 9.7552 6.30942 9.77778 6.06101C9.80933 5.7131 9.78575 5.36015 9.78575 5.00552C8.21569 5.00519 6.63766 5.00519 5.04335 5.00519ZM4.51867 13.0376C6.46365 13.0376 8.39899 13.0376 10.332 13.0376C10.332 12.8571 10.332 12.6884 10.332 12.5176C8.38936 12.5176 6.458 12.5176 4.51867 12.5176C4.51867 12.6914 4.51867 12.8561 4.51867 13.0376ZM10.335 3.93559C8.39235 3.93559 6.45999 3.93559 4.52066 3.93559C4.52066 4.1124 4.52066 4.28047 4.52066 4.45459C6.46298 4.45459 8.39501 4.45459 10.335 4.45459C10.335 4.28181 10.335 4.11744 10.335 3.93559Z" fill="white"/>
<path d="M9.28833 1.20703C9.4733 1.26418 9.63402 1.31359 9.81102 1.36804C9.75423 1.54082 9.70143 1.70082 9.64465 1.87293C9.48093 1.82385 9.32619 1.7778 9.15649 1.72704C9.20099 1.55326 9.24217 1.38956 9.28833 1.20703Z" fill="white"/>
<path d="M12.5876 3.85692C12.7238 3.73524 12.8503 3.62229 12.9851 3.50195C13.1017 3.64481 13.2123 3.78028 13.3338 3.92919C13.1927 4.03877 13.0595 4.1423 12.9157 4.25357C12.8088 4.12415 12.7045 3.9981 12.5876 3.85692Z" fill="white"/>
<path d="M14.1801 5.35938C14.2529 5.53585 14.3189 5.69652 14.3913 5.87199C14.2256 5.93451 14.0692 5.99367 13.8979 6.05821C13.8331 5.90325 13.77 5.75333 13.7 5.58627C13.8554 5.51266 14.0058 5.44173 14.1801 5.35938Z" fill="white"/>
<path d="M8.15161 1.54343C8.17021 1.36729 8.18814 1.20057 8.20773 1.01367C8.39237 1.03855 8.56173 1.06174 8.74802 1.08695C8.71581 1.27015 8.68692 1.43553 8.65571 1.61402C8.48469 1.59015 8.32562 1.56797 8.15161 1.54343Z" fill="white"/>
<path d="M10.3291 1.56445C10.5018 1.64714 10.6565 1.7211 10.8249 1.80143C10.7409 1.96749 10.6645 2.11741 10.5841 2.2764C10.4301 2.20346 10.2839 2.13421 10.1226 2.05791C10.1893 1.89824 10.2541 1.74395 10.3291 1.56445Z" fill="white"/>
<path d="M13.6512 4.38672C13.7498 4.55311 13.8384 4.70303 13.9331 4.86269C13.776 4.95076 13.6289 5.03346 13.4722 5.12152C13.3852 4.97631 13.3008 4.83547 13.2085 4.68118C13.3523 4.58571 13.4914 4.49294 13.6512 4.38672Z" fill="white"/>
<path d="M14.6949 6.94179C14.5119 6.98044 14.3522 7.01406 14.1791 7.0507C14.137 6.88229 14.0968 6.72363 14.054 6.55254C14.225 6.50245 14.386 6.45539 14.5614 6.4043C14.6059 6.58279 14.6477 6.75187 14.6949 6.94179Z" fill="white"/>
<path d="M14.2622 7.56271C14.4445 7.53885 14.6059 7.51767 14.7856 7.49414C14.8035 7.67566 14.8204 7.84776 14.84 8.0444C14.6604 8.05415 14.4953 8.06323 14.3133 8.07298C14.2957 7.90087 14.2798 7.7402 14.2622 7.56271Z" fill="white"/>
<path d="M11.7627 2.38374C11.6514 2.53971 11.5535 2.67719 11.4529 2.81871C11.3091 2.72123 11.1782 2.63249 11.0298 2.53198C11.1211 2.38105 11.2101 2.23382 11.3054 2.07617C11.4638 2.18239 11.6076 2.27887 11.7627 2.38374Z" fill="white"/>
<path d="M12.1983 2.72461C12.3408 2.85604 12.4683 2.97403 12.6074 3.10243C12.4739 3.22647 12.3504 3.34076 12.2182 3.46378C12.109 3.36462 11.9878 3.2547 11.8569 3.13605C11.9672 3.00327 12.0748 2.87352 12.1983 2.72461Z" fill="white"/>
<path d="M7.16919 9.81951C7.16919 9.639 7.16919 9.47396 7.16919 9.29883C7.34121 9.29883 7.50758 9.29883 7.68192 9.29883C7.68192 9.47463 7.68192 9.64304 7.68192 9.81951C7.5099 9.81951 7.34718 9.81951 7.16919 9.81951Z" fill="white"/>
<path d="M7.68078 10.8989C7.50611 10.8989 7.34738 10.8989 7.17603 10.8989C7.17603 10.7278 7.17603 10.5594 7.17603 10.3789C7.33841 10.3789 7.50445 10.3789 7.68078 10.3789C7.68078 10.5473 7.68078 10.7161 7.68078 10.8989Z" fill="white"/>
</g>
<defs>
<clipPath id="clip0_146_13326">
<rect width="16" height="16" fill="white"/>
</clipPath>
</defs>
</svg>
