<svg width="18" height="16" viewBox="0 0 18 16" fill="none" xmlns="http://www.w3.org/2000/svg">
<g clip-path="url(#clip0_146_13313)">
<path d="M17.3378 2.76372H17.3913L15.2782 0.108718C15.222 0.0403904 15.1351 0 15.0436 0H3.18899C3.09643 0 3.01027 0.0403904 2.9517 0.112083L0.841972 2.76372H0.891787L0.585157 3.08886C0.530629 3.14709 0.5 3.22215 0.5 3.30125V15.694C0.5 15.863 0.637327 16 0.806631 16H17.4266C17.5959 16 17.7333 15.8627 17.7333 15.694V3.30125C17.7333 3.22248 17.7026 3.14709 17.6481 3.08886L17.3378 2.76372ZM14.8965 0.612588L16.7918 2.99495H12.5926L12.538 2.88825L11.4014 0.612588H14.8965ZM10.7154 0.612588L11.9049 2.99495H6.52895L7.71845 0.612588C7.71878 0.612588 10.7154 0.612588 10.7154 0.612588ZM11.9063 3.6136V7.98721H6.52861V3.6136H11.9063ZM3.33676 0.612588H7.03349L5.84399 2.99495H1.44143L3.33676 0.612588ZM17.12 15.3861H1.11326V3.6072L5.91602 3.6136V8.29317C5.91602 8.46247 6.05268 8.60081 6.22198 8.60081C6.39128 8.60081 6.52861 8.46247 6.52861 8.29317H6.914C6.914 8.46247 7.05133 8.60081 7.21996 8.60081C7.38926 8.60081 7.52693 8.46247 7.52693 8.29317H7.91198C7.91198 8.46247 8.04965 8.60081 8.21794 8.60081C8.38724 8.60081 8.52491 8.46247 8.52491 8.29317H8.90996C8.90996 8.46247 9.04763 8.60081 9.21659 8.60081C9.38556 8.60081 9.52322 8.46247 9.52322 8.29317H9.90862C9.90862 8.46247 10.0459 8.60081 10.2152 8.60081C10.3846 8.60081 10.5212 8.46247 10.5212 8.29317H10.9073C10.9073 8.46247 11.0439 8.60081 11.2132 8.60081C11.3825 8.60081 11.5192 8.46247 11.5192 8.29317H11.9053C11.9053 8.46247 12.0426 8.60081 12.2112 8.60081C12.3805 8.60081 12.5178 8.46247 12.5178 8.29317V3.6136L17.119 3.6072L17.12 15.3861Z" fill="white"/>
</g>
<defs>
<clipPath id="clip0_146_13313">
<rect width="17.2333" height="16" fill="white" transform="translate(0.5)"/>
</clipPath>
</defs>
</svg>
