<svg width="16" height="16" viewBox="0 0 16 16" fill="none" xmlns="http://www.w3.org/2000/svg">
<path d="M7.69386 16.0001C7.31433 15.9477 6.93279 15.9094 6.55663 15.8402C4.61189 15.484 3.02043 14.5228 1.77284 13.0004C0.771539 11.7805 0.174659 10.3697 0.0367108 8.80435C-0.188044 6.25497 0.604655 4.04636 2.4424 2.24304C3.5406 1.16427 4.85616 0.451146 6.36955 0.166836C9.22206 -0.368849 11.7051 0.383934 13.7535 2.44737C15.0172 3.7197 15.7487 5.2777 15.9445 7.05547C16.1975 9.35348 15.5764 11.4102 14.0731 13.1772C12.9117 14.5423 11.438 15.4107 9.68637 15.7965C9.34789 15.8711 8.99798 15.8953 8.65277 15.9437C8.52962 15.9612 8.40715 15.9807 8.28468 15.9995C8.08752 16.0001 7.89102 16.0001 7.69386 16.0001ZM14.8665 7.99444C14.8739 4.21506 11.7899 1.13268 8.00004 1.13201C4.21688 1.13067 1.15376 4.17944 1.13492 7.96419C1.11607 11.751 4.22361 14.8609 8.01013 14.8448C11.794 14.8286 14.8591 11.7657 14.8665 7.99444Z" fill="white"/>
<path d="M6.35054 10.0696C6.40572 9.97619 6.44542 9.86663 6.51944 9.79203C8.14925 8.15808 9.7831 6.5275 11.4169 4.89826C11.5112 4.80417 11.6101 4.7094 11.7218 4.63815C11.9398 4.49835 12.2332 4.54002 12.4129 4.71948C12.6006 4.907 12.6403 5.17989 12.499 5.40841C12.4391 5.50587 12.3577 5.59257 12.2763 5.67457C10.4607 7.48999 8.64452 9.30406 6.82697 11.1175C6.4212 11.5228 6.13588 11.5221 5.73078 11.1195C5.24897 10.6403 4.76851 10.159 4.28737 9.67844C4.2369 9.62803 4.18509 9.57762 4.14135 9.52183C3.92803 9.25163 3.93745 8.94044 4.16221 8.722C4.38091 8.50961 4.71467 8.49751 4.96231 8.72872C5.33511 9.07621 5.69108 9.44185 6.0484 9.80547C6.11636 9.8747 6.15741 9.97081 6.21057 10.0548C6.25768 10.0595 6.30411 10.0649 6.35054 10.0696Z" fill="white"/>
</svg>
