<svg width="16" height="16" viewBox="0 0 16 16" fill="none" xmlns="http://www.w3.org/2000/svg">
<g clip-path="url(#clip0_146_17801)">
<path d="M6.94732 16C6.66838 15.9597 6.38744 15.9294 6.11049 15.8773C3.12212 15.317 0.822488 13.0625 0.168295 10.0563C-0.663226 6.2361 1.66696 2.30324 5.38324 1.26961C5.77808 1.15969 6.18753 1.1049 6.59034 1.02456C6.62488 1.0175 6.65941 1.00943 6.7245 0.994979C6.48839 0.793294 6.27055 0.607408 6.04241 0.412782C6.15333 0.275972 6.26026 0.144541 6.37781 0C6.59831 0.186222 6.81416 0.368075 7.02935 0.550936C7.21465 0.70825 7.40194 0.863211 7.58358 1.02456C7.71044 1.13717 7.73568 1.27532 7.63672 1.39835C7.30265 1.81348 6.96027 2.22156 6.60993 2.64611C6.47245 2.5298 6.34361 2.42089 6.20447 2.30324C6.40969 2.05282 6.61026 1.80811 6.82313 1.54894C3.52161 1.80542 0.558818 4.62867 0.53823 8.45329C0.518305 12.1609 3.31606 15.1257 6.80752 15.4309C8.81094 15.606 10.5822 15.0074 12.07 13.6342C13.5533 12.2655 14.2766 10.5347 14.3267 8.48589C14.4167 8.48589 14.5018 8.48589 14.5871 8.48589C14.6685 8.48589 14.7501 8.48589 14.8571 8.48589C14.8421 8.74842 14.8401 8.9975 14.8126 9.24322C14.5725 11.3646 13.632 13.0998 11.9746 14.4205C10.8223 15.3388 9.50166 15.8474 8.03853 15.9728C7.99337 15.9765 7.9492 15.9906 7.9047 16C7.58524 16 7.26645 16 6.94732 16Z" fill="white"/>
<path d="M10.3431 11.958C10.7485 12.0582 10.8711 12.2165 10.8714 12.6209C10.8714 12.7563 10.8731 12.8918 10.8711 13.0269C10.8658 13.3543 10.6546 13.5738 10.3294 13.5826C10.1136 13.5883 9.89741 13.5839 9.68123 13.5839C7.99428 13.5839 6.30699 13.5839 4.62004 13.5839C4.17705 13.5839 3.98245 13.3859 3.98212 12.9355C3.98212 12.8313 3.98212 12.7271 3.98212 12.6232C3.98245 12.2185 4.10366 12.0605 4.50979 11.9573C4.50979 11.7361 4.51843 11.5086 4.50813 11.2824C4.48323 10.7472 4.68712 10.3304 5.09259 9.98922C5.58273 9.57678 6.05495 9.14215 6.53447 8.71659C6.68058 8.58684 6.68091 8.38146 6.5338 8.2507C6.03536 7.80766 5.5389 7.36194 5.03514 6.92529C4.67483 6.61335 4.4975 6.22679 4.50913 5.74712C4.51511 5.50308 4.51012 5.2587 4.51012 5.01769C4.0751 4.88357 3.98212 4.7555 3.98245 4.29835C3.98245 4.16826 3.97946 4.03784 3.98378 3.90775C3.99275 3.64085 4.17406 3.43514 4.43574 3.39513C4.50149 3.38505 4.5689 3.38337 4.63565 3.38337C6.49761 3.3827 8.35957 3.3827 10.2215 3.38303C10.6798 3.38303 10.8714 3.57564 10.8717 4.03414C10.8717 4.12254 10.8717 4.21129 10.8717 4.29969C10.8717 4.75886 10.7761 4.89029 10.3434 5.01601C10.3434 5.2782 10.3424 5.54341 10.3437 5.80863C10.3457 6.24024 10.187 6.59755 9.8662 6.88193C9.35513 7.33438 8.8444 7.78682 8.33399 8.23994C8.16928 8.38616 8.16829 8.58113 8.33267 8.72701C8.83908 9.17677 9.34517 9.62686 9.85358 10.0743C10.1893 10.3694 10.3517 10.7392 10.3444 11.1889C10.3397 11.4437 10.3431 11.6985 10.3431 11.958ZM9.81506 11.9637C9.81506 11.7056 9.80875 11.4662 9.81672 11.2276C9.82735 10.9082 9.71344 10.6561 9.47236 10.4474C8.949 9.99359 8.43362 9.53039 7.91525 9.07055C7.59047 8.78281 7.58815 8.19221 7.91226 7.90246C8.24765 7.60262 8.58571 7.3058 8.9221 7.00697C8.96129 6.97202 8.99848 6.9347 9.04663 6.88832C7.95642 6.88832 6.89278 6.88832 5.8195 6.88832C5.83544 6.91084 5.83976 6.92092 5.8474 6.92765C6.19907 7.24026 6.55074 7.55287 6.90341 7.86447C7.28197 8.19927 7.28065 8.77306 6.90141 9.10752C6.38536 9.56232 5.86666 10.0138 5.35958 10.4783C5.24601 10.5825 5.11749 10.7257 5.09591 10.8666C5.04078 11.2262 5.04211 11.5946 5.02086 11.9637C6.6414 11.9637 8.2191 11.9637 9.81506 11.9637ZM5.04311 5.00324C5.04311 5.31753 5.03779 5.61367 5.04643 5.90947C5.04909 6.00023 5.08628 6.09099 5.1145 6.17973C5.15137 6.29503 5.22044 6.34377 5.35393 6.34343C6.71213 6.33738 8.06999 6.33973 9.42819 6.33973C9.67725 6.33973 9.75495 6.30746 9.77754 6.05906C9.80908 5.71115 9.78551 5.3582 9.78551 5.00357C8.21544 5.00324 6.63741 5.00324 5.04311 5.00324ZM4.51843 13.0357C6.4634 13.0357 8.39875 13.0357 10.3318 13.0357C10.3318 12.8552 10.3318 12.6864 10.3318 12.5157C8.38912 12.5157 6.45776 12.5157 4.51843 12.5157C4.51843 12.6894 4.51843 12.8542 4.51843 13.0357ZM10.3348 3.93363C8.39211 3.93363 6.45975 3.93363 4.52042 3.93363C4.52042 4.11044 4.52042 4.27851 4.52042 4.45264C6.46274 4.45264 8.39477 4.45264 10.3348 4.45264C10.3348 4.27986 10.3348 4.11549 10.3348 3.93363Z" fill="white"/>
<path d="M9.28808 1.20703C9.47305 1.26418 9.63378 1.31359 9.81078 1.36804C9.75399 1.54082 9.70119 1.70082 9.6444 1.87293C9.48069 1.82385 9.32594 1.7778 9.15625 1.72704C9.20075 1.55326 9.24193 1.38956 9.28808 1.20703Z" fill="white"/>
<path d="M12.5879 3.85497C12.724 3.73328 12.8506 3.62034 12.9854 3.5C13.1019 3.64286 13.2125 3.77833 13.3341 3.92724C13.1929 4.03682 13.0598 4.14035 12.916 4.25161C12.8091 4.1222 12.7048 3.99614 12.5879 3.85497Z" fill="white"/>
<path d="M14.1804 5.35938C14.2531 5.53585 14.3192 5.69652 14.3916 5.87199C14.2259 5.93451 14.0695 5.99367 13.8981 6.05821C13.8334 5.90325 13.7703 5.75333 13.7002 5.58627C13.8556 5.51266 14.006 5.44173 14.1804 5.35938Z" fill="white"/>
<path d="M8.15137 1.54538C8.16996 1.36925 8.1879 1.20252 8.20749 1.01562C8.39212 1.0405 8.56148 1.06369 8.74778 1.0889C8.71557 1.2721 8.68668 1.43748 8.65546 1.61597C8.48444 1.59211 8.32538 1.56992 8.15137 1.54538Z" fill="white"/>
<path d="M10.3291 1.5625C10.5018 1.64519 10.6565 1.71914 10.8249 1.79948C10.7409 1.96553 10.6645 2.11545 10.5841 2.27445C10.4301 2.20151 10.2839 2.13226 10.1226 2.05596C10.1893 1.89629 10.2541 1.742 10.3291 1.5625Z" fill="white"/>
<path d="M13.6512 4.38672C13.7498 4.55311 13.8384 4.70303 13.9331 4.86269C13.776 4.95076 13.6289 5.03346 13.4722 5.12152C13.3852 4.97631 13.3008 4.83547 13.2085 4.68118C13.3523 4.58571 13.4914 4.49294 13.6512 4.38672Z" fill="white"/>
<path d="M14.6946 6.94374C14.5116 6.9824 14.3519 7.01601 14.1789 7.05265C14.1367 6.88424 14.0965 6.72558 14.0537 6.55449C14.2247 6.5044 14.3858 6.45734 14.5611 6.40625C14.6056 6.58474 14.6475 6.75382 14.6946 6.94374Z" fill="white"/>
<path d="M14.2622 7.56076C14.4445 7.53689 14.6059 7.51572 14.7856 7.49219C14.8035 7.6737 14.8204 7.84581 14.84 8.04245C14.6604 8.0522 14.4953 8.06128 14.3133 8.07102C14.2957 7.89892 14.2798 7.73824 14.2622 7.56076Z" fill="white"/>
<path d="M11.7627 2.38569C11.6514 2.54166 11.5535 2.67915 11.4529 2.82066C11.3091 2.72318 11.1782 2.63444 11.0298 2.53393C11.1211 2.38301 11.2101 2.23578 11.3054 2.07812C11.4638 2.18435 11.6076 2.28082 11.7627 2.38569Z" fill="white"/>
<path d="M12.1983 2.72656C12.3408 2.85799 12.4683 2.97598 12.6074 3.10439C12.4739 3.22842 12.3504 3.34271 12.2182 3.46574C12.109 3.36658 11.9878 3.25666 11.8569 3.138C11.9672 3.00522 12.0748 2.87547 12.1983 2.72656Z" fill="white"/>
<path d="M7.16895 9.81756C7.16895 9.63705 7.16895 9.472 7.16895 9.29688C7.34096 9.29688 7.50733 9.29688 7.68167 9.29688C7.68167 9.47268 7.68167 9.64108 7.68167 9.81756C7.50966 9.81756 7.34694 9.81756 7.16895 9.81756Z" fill="white"/>
<path d="M7.68054 10.8989C7.50587 10.8989 7.34713 10.8989 7.17578 10.8989C7.17578 10.7278 7.17578 10.5594 7.17578 10.3789C7.33817 10.3789 7.50421 10.3789 7.68054 10.3789C7.68054 10.5473 7.68054 10.7161 7.68054 10.8989Z" fill="white"/>
</g>
<defs>
<clipPath id="clip0_146_17801">
<rect width="16" height="16" fill="white"/>
</clipPath>
</defs>
</svg>
