<svg width="17" height="16" viewBox="0 0 17 16" fill="none" xmlns="http://www.w3.org/2000/svg">
<mask id="mask0_146_13305" style="mask-type:alpha" maskUnits="userSpaceOnUse" x="0" y="0" width="17" height="16">
<rect x="0.5" width="16" height="16" fill="#D9D9D9"/>
</mask>
<g mask="url(#mask0_146_13305)">
<path d="M4.50008 13.3327C3.94453 13.3327 3.4723 13.1382 3.08341 12.7493C2.69453 12.3605 2.50008 11.8882 2.50008 11.3327H1.16675V3.99935C1.16675 3.63268 1.2973 3.31879 1.55841 3.05768C1.81953 2.79657 2.13341 2.66602 2.50008 2.66602H11.8334V5.33268H13.8334L15.8334 7.99935V11.3327H14.5001C14.5001 11.8882 14.3056 12.3605 13.9167 12.7493C13.5279 13.1382 13.0556 13.3327 12.5001 13.3327C11.9445 13.3327 11.4723 13.1382 11.0834 12.7493C10.6945 12.3605 10.5001 11.8882 10.5001 11.3327H6.50008C6.50008 11.8882 6.30564 12.3605 5.91675 12.7493C5.52786 13.1382 5.05564 13.3327 4.50008 13.3327ZM4.50008 11.9993C4.68897 11.9993 4.8473 11.9355 4.97508 11.8077C5.10286 11.6799 5.16675 11.5216 5.16675 11.3327C5.16675 11.1438 5.10286 10.9855 4.97508 10.8577C4.8473 10.7299 4.68897 10.666 4.50008 10.666C4.31119 10.666 4.15286 10.7299 4.02508 10.8577C3.8973 10.9855 3.83341 11.1438 3.83341 11.3327C3.83341 11.5216 3.8973 11.6799 4.02508 11.8077C4.15286 11.9355 4.31119 11.9993 4.50008 11.9993ZM2.50008 9.99935H3.03341C3.2223 9.79935 3.43897 9.63824 3.68341 9.51602C3.92786 9.39379 4.20008 9.33268 4.50008 9.33268C4.80008 9.33268 5.0723 9.39379 5.31675 9.51602C5.56119 9.63824 5.77786 9.79935 5.96675 9.99935H10.5001V3.99935H2.50008V9.99935ZM12.5001 11.9993C12.689 11.9993 12.8473 11.9355 12.9751 11.8077C13.1029 11.6799 13.1667 11.5216 13.1667 11.3327C13.1667 11.1438 13.1029 10.9855 12.9751 10.8577C12.8473 10.7299 12.689 10.666 12.5001 10.666C12.3112 10.666 12.1529 10.7299 12.0251 10.8577C11.8973 10.9855 11.8334 11.1438 11.8334 11.3327C11.8334 11.5216 11.8973 11.6799 12.0251 11.8077C12.1529 11.9355 12.3112 11.9993 12.5001 11.9993ZM11.8334 8.66602H14.6667L13.1667 6.66602H11.8334V8.66602Z" fill="white"/>
</g>
</svg>
