<svg width="17" height="16" viewBox="0 0 17 16" fill="none" xmlns="http://www.w3.org/2000/svg">
<path d="M8.19386 16.0001C7.81433 15.9477 7.43279 15.9094 7.05663 15.8402C5.11189 15.484 3.52043 14.5228 2.27284 13.0004C1.27154 11.7805 0.674659 10.3697 0.536711 8.80435C0.311956 6.25497 1.10465 4.04636 2.9424 2.24304C4.0406 1.16427 5.35616 0.451146 6.86955 0.166836C9.72206 -0.368849 12.2051 0.383934 14.2535 2.44737C15.5172 3.7197 16.2487 5.2777 16.4445 7.05547C16.6975 9.35348 16.0764 11.4102 14.5731 13.1772C13.4117 14.5423 11.938 15.4107 10.1864 15.7965C9.84789 15.8711 9.49798 15.8953 9.15277 15.9437C9.02962 15.9612 8.90715 15.9807 8.78468 15.9995C8.58752 16.0001 8.39102 16.0001 8.19386 16.0001ZM15.3665 7.99444C15.3739 4.21506 12.2899 1.13268 8.50004 1.13201C4.71688 1.13067 1.65376 4.17944 1.63492 7.96419C1.61607 11.751 4.72361 14.8609 8.51013 14.8448C12.294 14.8286 15.3591 11.7657 15.3665 7.99444Z" fill="white"/>
<path d="M6.8503 10.0696C6.90548 9.97619 6.94518 9.86663 7.0192 9.79203C8.64901 8.15808 10.2829 6.5275 11.9167 4.89826C12.0109 4.80417 12.1098 4.7094 12.2215 4.63815C12.4396 4.49835 12.733 4.54002 12.9126 4.71948C13.1004 4.907 13.1401 5.17989 12.9988 5.40841C12.9389 5.50587 12.8574 5.59257 12.776 5.67457C10.9605 7.48999 9.14428 9.30406 7.32672 11.1175C6.92095 11.5228 6.63564 11.5221 6.23054 11.1195C5.74873 10.6403 5.26826 10.159 4.78713 9.67844C4.73666 9.62803 4.68484 9.57762 4.6411 9.52183C4.42779 9.25163 4.43721 8.94044 4.66196 8.722C4.88066 8.50961 5.21443 8.49751 5.46206 8.72872C5.83486 9.07621 6.19084 9.44185 6.54816 9.80547C6.61612 9.8747 6.65717 9.97081 6.71033 10.0548C6.75743 10.0595 6.80387 10.0649 6.8503 10.0696Z" fill="white"/>
</svg>
