<svg width="14" height="14" viewBox="0 0 14 14" fill="none" xmlns="http://www.w3.org/2000/svg">
<path d="M6.3 6.65C6.3 6.46435 6.37375 6.2863 6.50503 6.15503C6.6363 6.02375 6.81435 5.95 7 5.95C7.18565 5.95 7.3637 6.02375 7.49497 6.15503C7.62625 6.2863 7.7 6.46435 7.7 6.65V10.8C7.7 10.9857 7.62625 11.1637 7.49497 11.295C7.3637 11.4263 7.18565 11.5 7 11.5C6.81435 11.5 6.6363 11.4263 6.50503 11.295C6.37375 11.1637 6.3 10.9857 6.3 10.8V6.65ZM7 2.8C6.72152 2.8 6.45445 2.91062 6.25754 3.10754C6.06062 3.30445 5.95 3.57152 5.95 3.85C5.95 4.12848 6.06062 4.39555 6.25754 4.59246C6.45445 4.78938 6.72152 4.9 7 4.9C7.27848 4.9 7.54555 4.78938 7.74246 4.59246C7.93938 4.39555 8.05 4.12848 8.05 3.85C8.05 3.57152 7.93938 3.30445 7.74246 3.10754C7.54555 2.91062 7.27848 2.8 7 2.8ZM0 7C0 5.14348 0.737498 3.36301 2.05025 2.05025C3.36301 0.737498 5.14348 0 7 0C8.85652 0 10.637 0.737498 11.9497 2.05025C13.2625 3.36301 14 5.14348 14 7C14 8.85652 13.2625 10.637 11.9497 11.9497C10.637 13.2625 8.85652 14 7 14C5.14348 14 3.36301 13.2625 2.05025 11.9497C0.737498 10.637 0 8.85652 0 7ZM7 1.4C5.51479 1.4 4.09041 1.99 3.0402 3.0402C1.99 4.09041 1.4 5.51479 1.4 7C1.4 8.48521 1.99 9.90959 3.0402 10.9598C4.09041 12.01 5.51479 12.6 7 12.6C8.48521 12.6 9.90959 12.01 10.9598 10.9598C12.01 9.90959 12.6 8.48521 12.6 7C12.6 5.51479 12.01 4.09041 10.9598 3.0402C9.90959 1.99 8.48521 1.4 7 1.4Z" fill="#667085"/>
</svg>
