<svg width="21" height="21" viewBox="0 0 21 21" fill="none" xmlns="http://www.w3.org/2000/svg">
<path d="M2.14279 10.5148V17.9053C2.14279 18.4313 2.56918 18.8577 3.09517 18.8577H6.90469C7.43068 18.8577 7.85707 18.4313 7.85707 17.9053V12.6672C7.85707 12.4042 8.07027 12.191 8.33326 12.191H13.0952C13.3582 12.191 13.5714 12.4042 13.5714 12.6672V17.9053C13.5714 18.4313 13.9978 18.8577 14.5237 18.8577H18.3333C18.8592 18.8577 19.2856 18.4313 19.2856 17.9053V10.5148C19.285 9.75734 18.9835 9.0311 18.4475 8.4958L11.9428 1.99103C11.7654 1.81509 11.526 1.7159 11.2761 1.71484H10.1523C9.90246 1.7159 9.66304 1.81509 9.48565 1.99103L2.98088 8.4958C2.44491 9.0311 2.14346 9.75734 2.14279 10.5148Z" fill="white"/>
</svg>
