<svg width="19" height="18" viewBox="0 0 19 18" fill="none" xmlns="http://www.w3.org/2000/svg">
<path fill-rule="evenodd" clip-rule="evenodd" d="M12.2244 3.75H12.0291C12.0291 2.50736 11.0194 1.5 9.77365 1.5H8.26999C7.02432 1.5 6.01451 2.50736 6.01451 3.75H5.52077H5.26268H5.2618H3.0072C2.59198 3.75 2.25537 4.08579 2.25537 4.5C2.25537 4.91422 2.59198 5.25 3.0072 5.25H3.75903V14.25C3.75903 15.4927 4.76884 16.5 6.01451 16.5H12.0291C13.2748 16.5 14.2846 15.4927 14.2846 14.25V5.25H15.0364C15.4517 5.25 15.7883 4.91421 15.7883 4.5C15.7883 4.08578 15.4517 3.75 15.0364 3.75H12.7823H12.781H12.2244ZM12.781 5.25H11.2773H10.5255H7.51817H6.76634H5.26268V6.75V14.25C5.26268 14.6642 5.59929 15 6.01451 15H12.0291C12.4444 15 12.781 14.6642 12.781 14.25V6.75V5.25ZM7.51817 3.75H8.26999H9.02182H9.77365H10.5255C10.5255 3.33579 10.1889 3 9.77365 3H8.26999C7.85476 3 7.51817 3.33579 7.51817 3.75ZM7.51817 6.75C7.9334 6.75 8.26999 7.08579 8.26999 7.5V12.75C8.26999 13.1642 7.9334 13.5 7.51817 13.5C7.10295 13.5 6.76634 13.1642 6.76634 12.75V7.5C6.76634 7.08579 7.10295 6.75 7.51817 6.75ZM11.2773 7.5C11.2773 7.08579 10.9407 6.75 10.5255 6.75C10.1102 6.75 9.77365 7.08579 9.77365 7.5V12.75C9.77365 13.1642 10.1102 13.5 10.5255 13.5C10.9407 13.5 11.2773 13.1642 11.2773 12.75V7.5Z" fill="#8C8C8C"/>
</svg>
